<svg width="1452" height="74" viewBox="0 0 1452 74" fill="none" xmlns="http://www.w3.org/2000/svg">
<path d="M150.384 56.3927L101.045 56.6024L106.488 42.6249L104.987 40.9673L106.403 37.3332L107.94 38.8976L113.093 25.6655L111.556 24.1011L113.588 18.8829L162.984 18.8027L160.916 24.1141L162.396 25.5491L157.098 39.1538L155.037 39.2098L154.093 41.6326L155.408 43.2176L150.384 56.3927Z" stroke="#C6C2C2" stroke-miterlimit="10"/>
<path d="M106.488 42.6249L155.408 43.2176" stroke="#C6C2C2" stroke-miterlimit="10"/>
<path d="M104.988 40.9673L154.166 41.4462" stroke="#C6C2C2" stroke-miterlimit="10"/>
<path d="M107.847 38.8613L157.191 39.1901" stroke="#C6C2C2" stroke-miterlimit="10"/>
<path d="M113.093 25.6655L162.453 25.6785" stroke="#C6C2C2" stroke-miterlimit="10"/>
<path d="M111.556 24.1011L161.045 24.0572" stroke="#C6C2C2" stroke-miterlimit="10"/>
<path d="M120.742 21.4544C120.768 22.2155 120.105 22.8158 119.38 22.7482L117.319 22.8041C116.558 22.8297 115.958 22.1666 116.025 21.4418C116 20.6806 116.663 20.0803 117.388 20.148L119.412 20.1852C120.173 20.1596 120.774 20.8227 120.742 21.4544Z" stroke="#C6C2C2" stroke-miterlimit="10"/>
<path d="M133.055 21.5276C133.081 22.2887 132.418 22.889 131.693 22.8214L129.668 22.7842C128.907 22.8097 128.307 22.1467 128.374 21.4218C128.349 20.6607 129.012 20.0604 129.737 20.128L131.761 20.1652C132.393 20.1966 133.03 20.7664 133.055 21.5276Z" stroke="#C6C2C2" stroke-miterlimit="10"/>
<path d="M145.218 21.4349C145.243 22.1961 144.58 22.7964 143.855 22.7287L141.831 22.6915C141.07 22.7171 140.469 22.054 140.537 21.3292C140.512 20.568 141.175 19.9677 141.899 20.0354L143.924 20.0726C144.649 20.1402 145.192 20.6738 145.218 21.4349Z" stroke="#C6C2C2" stroke-miterlimit="10"/>
<path d="M157.79 21.3943C157.815 22.1554 157.152 22.7558 156.427 22.6881L154.403 22.6509C153.605 22.7696 153.005 22.1066 153.036 21.4749C153.011 20.7137 153.674 20.1134 154.399 20.1811L156.423 20.2183C157.221 20.0996 157.728 20.7263 157.79 21.3943Z" stroke="#C6C2C2" stroke-miterlimit="10"/>
<path d="M51.203 56.5783L1.86356 56.788L7.30687 42.8105L5.80609 41.1529L7.22135 37.5187L8.75842 39.0831L13.9114 25.8511L12.3743 24.2867L14.4065 19.0684L63.8028 18.9882L61.7343 24.2997L63.2145 25.7346L57.9164 39.3394L55.8556 39.3954L54.9121 41.8181L56.2265 43.4032L51.203 56.5783Z" stroke="#C6C2C2" stroke-miterlimit="10"/>
<path d="M7.30693 42.8105L56.2265 43.4032" stroke="#C6C2C2" stroke-miterlimit="10"/>
<path d="M5.80613 41.1529L54.9847 41.6318" stroke="#C6C2C2" stroke-miterlimit="10"/>
<path d="M8.66519 39.0469L58.0095 39.3757" stroke="#C6C2C2" stroke-miterlimit="10"/>
<path d="M13.9113 25.8511L63.2713 25.8641" stroke="#C6C2C2" stroke-miterlimit="10"/>
<path d="M12.3743 24.2867L61.8638 24.2428" stroke="#C6C2C2" stroke-miterlimit="10"/>
<path d="M21.5609 21.6399C21.5864 22.401 20.9234 23.0014 20.1985 22.9337L18.1377 22.9897C17.3766 23.0152 16.7763 22.3522 16.8439 21.6273C16.8184 20.8662 17.4814 20.2659 18.2063 20.3335L20.2308 20.3707C20.9919 20.3452 21.5923 21.0082 21.5609 21.6399Z" stroke="#C6C2C2" stroke-miterlimit="10"/>
<path d="M33.8738 21.7131C33.8993 22.4743 33.2363 23.0746 32.5114 23.0069L30.4869 22.9697C29.7258 22.9953 29.1254 22.3322 29.1931 21.6074C29.1676 20.8462 29.8306 20.2459 30.5555 20.3136L32.58 20.3508C33.2117 20.3821 33.8483 20.952 33.8738 21.7131Z" stroke="#C6C2C2" stroke-miterlimit="10"/>
<path d="M46.0364 21.6205C46.0619 22.3816 45.3989 22.9819 44.674 22.9143L42.6495 22.8771C41.8883 22.9026 41.288 22.2396 41.3557 21.5147C41.3302 20.7536 41.9932 20.1532 42.7181 20.2209L44.7426 20.2581C45.4674 20.3258 46.0108 20.8593 46.0364 21.6205Z" stroke="#C6C2C2" stroke-miterlimit="10"/>
<path d="M58.6082 21.5798C58.6338 22.341 57.9707 22.9413 57.2459 22.8736L55.2214 22.8364C54.4239 22.9552 53.8236 22.2921 53.855 21.6604C53.8295 20.8993 54.4925 20.299 55.2174 20.3666L57.2419 20.4038C58.0393 20.2851 58.5464 20.9119 58.6082 21.5798Z" stroke="#C6C2C2" stroke-miterlimit="10"/>
<path d="M101.293 56.5148L51.9534 56.7245L57.3967 42.747L55.8959 41.0894L57.3112 37.4552L58.8483 39.0197L64.0013 25.7876L62.4642 24.2232L64.4964 19.0049L113.893 18.9247L111.824 24.2362L113.304 25.6711L108.006 39.2759L105.945 39.3319L105.002 41.7546L106.316 43.3397L101.293 56.5148Z" stroke="#C6C2C2" stroke-miterlimit="10"/>
<path d="M57.3968 42.747L106.316 43.3397" stroke="#C6C2C2" stroke-miterlimit="10"/>
<path d="M55.896 41.0894L105.075 41.5683" stroke="#C6C2C2" stroke-miterlimit="10"/>
<path d="M58.755 38.9834L108.099 39.3122" stroke="#C6C2C2" stroke-miterlimit="10"/>
<path d="M64.0011 25.7876L113.361 25.8006" stroke="#C6C2C2" stroke-miterlimit="10"/>
<path d="M62.4641 24.2232L111.954 24.1793" stroke="#C6C2C2" stroke-miterlimit="10"/>
<path d="M71.6507 21.5764C71.6763 22.3376 71.0132 22.9379 70.2884 22.8702L68.2276 22.9262C67.4664 22.9517 66.8661 22.2887 66.9338 21.5638C66.9082 20.8027 67.5713 20.2024 68.2961 20.27L70.3206 20.3072C71.0818 20.2817 71.6821 20.9447 71.6507 21.5764Z" stroke="#C6C2C2" stroke-miterlimit="10"/>
<path d="M83.9636 21.6497C83.9892 22.4108 83.3261 23.0111 82.6012 22.9435L80.5767 22.9063C79.8156 22.9318 79.2153 22.2687 79.2829 21.5439C79.2574 20.7827 79.9205 20.1824 80.6453 20.2501L82.6698 20.2873C83.3015 20.3186 83.9381 20.8885 83.9636 21.6497Z" stroke="#C6C2C2" stroke-miterlimit="10"/>
<path d="M96.1262 21.557C96.1517 22.3182 95.4887 22.9185 94.7638 22.8508L92.7393 22.8136C91.9782 22.8391 91.3779 22.1761 91.4455 21.4512C91.42 20.6901 92.083 20.0898 92.8079 20.1574L94.8324 20.1946C95.5573 20.2623 96.1007 20.7959 96.1262 21.557Z" stroke="#C6C2C2" stroke-miterlimit="10"/>
<path d="M108.698 21.5164C108.724 22.2775 108.061 22.8778 107.336 22.8102L105.311 22.773C104.514 22.8917 103.913 22.2286 103.945 21.597C103.919 20.8358 104.582 20.2355 105.307 20.3032L107.332 20.3404C108.129 20.2216 108.636 20.8484 108.698 21.5164Z" stroke="#C6C2C2" stroke-miterlimit="10"/>
<path d="M298.658 56.0853L249.318 56.2949L254.761 42.3174L253.261 40.6598L254.676 37.0257L256.213 38.5901L261.366 25.3581L259.829 23.7936L261.861 18.5754L311.257 18.4952L309.189 23.8066L310.669 25.2416L305.371 38.8463L303.31 38.9023L302.367 41.3251L303.681 42.9101L298.658 56.0853Z" stroke="#C6C2C2" stroke-miterlimit="10"/>
<path d="M254.762 42.3174L303.681 42.9101" stroke="#C6C2C2" stroke-miterlimit="10"/>
<path d="M253.261 40.6598L302.439 41.1387" stroke="#C6C2C2" stroke-miterlimit="10"/>
<path d="M256.12 38.5538L305.464 38.8827" stroke="#C6C2C2" stroke-miterlimit="10"/>
<path d="M261.366 25.358L310.726 25.371" stroke="#C6C2C2" stroke-miterlimit="10"/>
<path d="M259.829 23.7936L309.318 23.7497" stroke="#C6C2C2" stroke-miterlimit="10"/>
<path d="M269.015 21.1469C269.041 21.908 268.378 22.5083 267.653 22.4407L265.592 22.4966C264.831 22.5222 264.231 21.8591 264.299 21.1343C264.273 20.3731 264.936 19.7728 265.661 19.8405L267.685 19.8777C268.447 19.8521 269.047 20.5152 269.015 21.1469Z" stroke="#C6C2C2" stroke-miterlimit="10"/>
<path d="M281.328 21.2201C281.354 21.9812 280.691 22.5815 279.966 22.5139L277.941 22.4767C277.18 22.5022 276.58 21.8392 276.648 21.1143C276.622 20.3532 277.285 19.7529 278.01 19.8205L280.035 19.8577C280.666 19.8891 281.303 20.4589 281.328 21.2201Z" stroke="#C6C2C2" stroke-miterlimit="10"/>
<path d="M293.491 21.1274C293.516 21.8886 292.853 22.4889 292.129 22.4212L290.104 22.384C289.343 22.4096 288.743 21.7465 288.81 21.0217C288.785 20.2605 289.448 19.6602 290.173 19.7279L292.197 19.7651C292.922 19.8327 293.465 20.3663 293.491 21.1274Z" stroke="#C6C2C2" stroke-miterlimit="10"/>
<path d="M306.063 21.0868C306.088 21.8479 305.425 22.4483 304.7 22.3806L302.676 22.3434C301.879 22.4621 301.278 21.7991 301.31 21.1674C301.284 20.4062 301.947 19.8059 302.672 19.8736L304.696 19.9108C305.494 19.7921 306.001 20.4188 306.063 21.0868Z" stroke="#C6C2C2" stroke-miterlimit="10"/>
<path d="M199.476 56.2708L150.137 56.4805L155.58 42.503L154.079 40.8454L155.495 37.2112L157.032 38.7756L162.185 25.5436L160.648 23.9792L162.68 18.7609L212.076 18.6807L210.008 23.9922L211.488 25.4271L206.19 39.0319L204.129 39.0879L203.185 41.5106L204.5 43.0957L199.476 56.2708Z" stroke="#C6C2C2" stroke-miterlimit="10"/>
<path d="M155.58 42.503L204.5 43.0957" stroke="#C6C2C2" stroke-miterlimit="10"/>
<path d="M154.079 40.8454L203.258 41.3243" stroke="#C6C2C2" stroke-miterlimit="10"/>
<path d="M156.938 38.7394L206.283 39.0682" stroke="#C6C2C2" stroke-miterlimit="10"/>
<path d="M162.184 25.5436L211.545 25.5566" stroke="#C6C2C2" stroke-miterlimit="10"/>
<path d="M160.647 23.9792L210.137 23.9353" stroke="#C6C2C2" stroke-miterlimit="10"/>
<path d="M169.834 21.3324C169.86 22.0936 169.197 22.6939 168.472 22.6262L166.411 22.6822C165.65 22.7077 165.049 22.0447 165.117 21.3198C165.092 20.5587 165.755 19.9584 166.479 20.026L168.504 20.0632C169.265 20.0377 169.865 20.7007 169.834 21.3324Z" stroke="#C6C2C2" stroke-miterlimit="10"/>
<path d="M182.147 21.4056C182.173 22.1668 181.509 22.7671 180.785 22.6994L178.76 22.6622C177.999 22.6878 177.399 22.0247 177.466 21.2999C177.441 20.5387 178.104 19.9384 178.829 20.0061L180.853 20.0433C181.485 20.0746 182.121 20.6445 182.147 21.4056Z" stroke="#C6C2C2" stroke-miterlimit="10"/>
<path d="M194.31 21.313C194.335 22.0741 193.672 22.6744 192.947 22.6068L190.923 22.5696C190.162 22.5951 189.561 21.9321 189.629 21.2072C189.603 20.4461 190.266 19.8458 190.991 19.9134L193.016 19.9506C193.741 20.0183 194.284 20.5518 194.31 21.313Z" stroke="#C6C2C2" stroke-miterlimit="10"/>
<path d="M206.881 21.2723C206.907 22.0335 206.244 22.6338 205.519 22.5661L203.495 22.5289C202.697 22.6477 202.097 21.9846 202.128 21.3529C202.103 20.5918 202.766 19.9915 203.491 20.0591L205.515 20.0963C206.312 19.9776 206.82 20.6044 206.881 21.2723Z" stroke="#C6C2C2" stroke-miterlimit="10"/>
<path d="M249.566 56.2073L200.227 56.417L205.67 42.4395L204.169 40.7819L205.584 37.1477L207.121 38.7122L212.274 25.4801L210.737 23.9157L212.77 18.6974L262.166 18.6172L260.097 23.9287L261.578 25.3636L256.279 38.9684L254.219 39.0244L253.275 41.4472L254.59 43.0322L249.566 56.2073Z" stroke="#C6C2C2" stroke-miterlimit="10"/>
<path d="M205.67 42.4395L254.59 43.0322" stroke="#C6C2C2" stroke-miterlimit="10"/>
<path d="M204.169 40.7819L253.348 41.2608" stroke="#C6C2C2" stroke-miterlimit="10"/>
<path d="M207.028 38.6759L256.373 39.0047" stroke="#C6C2C2" stroke-miterlimit="10"/>
<path d="M212.274 25.4801L261.634 25.4931" stroke="#C6C2C2" stroke-miterlimit="10"/>
<path d="M210.737 23.9157L260.227 23.8718" stroke="#C6C2C2" stroke-miterlimit="10"/>
<path d="M219.924 21.2689C219.949 22.0301 219.286 22.6304 218.562 22.5627L216.501 22.6187C215.74 22.6442 215.139 21.9812 215.207 21.2563C215.181 20.4952 215.844 19.8949 216.569 19.9625L218.594 19.9997C219.355 19.9742 219.955 20.6373 219.924 21.2689Z" stroke="#C6C2C2" stroke-miterlimit="10"/>
<path d="M232.237 21.3422C232.262 22.1033 231.599 22.7036 230.874 22.636L228.85 22.5988C228.089 22.6243 227.488 21.9612 227.556 21.2364C227.531 20.4752 228.194 19.8749 228.919 19.9426L230.943 19.9798C231.575 20.0111 232.211 20.581 232.237 21.3422Z" stroke="#C6C2C2" stroke-miterlimit="10"/>
<path d="M244.399 21.2495C244.425 22.0107 243.762 22.611 243.037 22.5433L241.013 22.5061C240.251 22.5316 239.651 21.8686 239.719 21.1437C239.693 20.3826 240.356 19.7823 241.081 19.8499L243.106 19.8871C243.83 19.9548 244.374 20.4884 244.399 21.2495Z" stroke="#C6C2C2" stroke-miterlimit="10"/>
<path d="M256.971 21.2089C256.997 21.97 256.334 22.5703 255.609 22.5027L253.584 22.4655C252.787 22.5842 252.187 21.9211 252.218 21.2895C252.192 20.5283 252.856 19.928 253.58 19.9957L255.605 20.0329C256.402 19.9141 256.909 20.5409 256.971 21.2089Z" stroke="#C6C2C2" stroke-miterlimit="10"/>
<path d="M1337.38 54.4683L1288.05 54.678L1293.49 40.7005L1291.99 39.0429L1293.4 35.4087L1294.94 36.9731L1300.09 23.7411L1298.56 22.1767L1300.59 16.9584L1349.98 16.8782L1347.92 22.1897L1349.4 23.6246L1344.1 37.2294L1342.04 37.2854L1341.09 39.7081L1342.41 41.2932L1337.38 54.4683Z" stroke="#C6C2C2" stroke-miterlimit="10"/>
<path d="M1293.49 40.7005L1342.41 41.2932" stroke="#C6C2C2" stroke-miterlimit="10"/>
<path d="M1291.99 39.0429L1341.17 39.5218" stroke="#C6C2C2" stroke-miterlimit="10"/>
<path d="M1294.85 36.9369L1344.19 37.2657" stroke="#C6C2C2" stroke-miterlimit="10"/>
<path d="M1300.09 23.7411L1349.45 23.7541" stroke="#C6C2C2" stroke-miterlimit="10"/>
<path d="M1298.56 22.1767L1348.05 22.1328" stroke="#C6C2C2" stroke-miterlimit="10"/>
<path d="M1307.74 19.5299C1307.77 20.2911 1307.11 20.8914 1306.38 20.8237L1304.32 20.8797C1303.56 20.9052 1302.96 20.2422 1303.03 19.5173C1303 18.7562 1303.66 18.1559 1304.39 18.2235L1306.41 18.2607C1307.17 18.2352 1307.77 18.8982 1307.74 19.5299Z" stroke="#C6C2C2" stroke-miterlimit="10"/>
<path d="M1320.06 19.6031C1320.08 20.3643 1319.42 20.9646 1318.69 20.897L1316.67 20.8597C1315.91 20.8853 1315.31 20.2222 1315.37 19.4974C1315.35 18.7362 1316.01 18.1359 1316.74 18.2036L1318.76 18.2408C1319.39 18.2721 1320.03 18.842 1320.06 19.6031Z" stroke="#C6C2C2" stroke-miterlimit="10"/>
<path d="M1332.22 19.5105C1332.24 20.2716 1331.58 20.872 1330.86 20.8043L1328.83 20.7671C1328.07 20.7926 1327.47 20.1296 1327.54 19.4047C1327.51 18.6436 1328.17 18.0433 1328.9 18.1109L1330.92 18.1481C1331.65 18.2158 1332.19 18.7493 1332.22 19.5105Z" stroke="#C6C2C2" stroke-miterlimit="10"/>
<path d="M1344.79 19.4699C1344.82 20.231 1344.15 20.8313 1343.43 20.7637L1341.4 20.7265C1340.61 20.8452 1340.01 20.1821 1340.04 19.5504C1340.01 18.7893 1340.67 18.189 1341.4 18.2566L1343.42 18.2938C1344.22 18.1751 1344.73 18.8019 1344.79 19.4699Z" stroke="#C6C2C2" stroke-miterlimit="10"/>
<path d="M1238.2 54.6539L1188.86 54.8635L1194.31 40.886L1192.81 39.2284L1194.22 35.5943L1195.76 37.1587L1200.91 23.9267L1199.37 22.3622L1201.41 17.144L1250.8 17.0638L1248.73 22.3752L1250.21 23.8102L1244.92 37.4149L1242.86 37.4709L1241.91 39.8937L1243.23 41.4787L1238.2 54.6539Z" stroke="#C6C2C2" stroke-miterlimit="10"/>
<path d="M1194.31 40.8861L1243.23 41.4787" stroke="#C6C2C2" stroke-miterlimit="10"/>
<path d="M1192.81 39.2284L1241.98 39.7073" stroke="#C6C2C2" stroke-miterlimit="10"/>
<path d="M1195.67 37.1224L1245.01 37.4513" stroke="#C6C2C2" stroke-miterlimit="10"/>
<path d="M1200.91 23.9266L1250.27 23.9396" stroke="#C6C2C2" stroke-miterlimit="10"/>
<path d="M1199.37 22.3622L1248.86 22.3183" stroke="#C6C2C2" stroke-miterlimit="10"/>
<path d="M1208.56 19.7155C1208.59 20.4766 1207.92 21.0769 1207.2 21.0093L1205.14 21.0652C1204.38 21.0908 1203.78 20.4277 1203.84 19.7029C1203.82 18.9417 1204.48 18.3414 1205.21 18.4091L1207.23 18.4463C1207.99 18.4207 1208.59 19.0838 1208.56 19.7155Z" stroke="#C6C2C2" stroke-miterlimit="10"/>
<path d="M1220.87 19.7887C1220.9 20.5498 1220.24 21.1502 1219.51 21.0825L1217.49 21.0453C1216.73 21.0708 1216.13 20.4078 1216.19 19.6829C1216.17 18.9218 1216.83 18.3215 1217.56 18.3891L1219.58 18.4263C1220.21 18.4577 1220.85 19.0275 1220.87 19.7887Z" stroke="#C6C2C2" stroke-miterlimit="10"/>
<path d="M1233.04 19.696C1233.06 20.4572 1232.4 21.0575 1231.67 20.9898L1229.65 20.9526C1228.89 20.9782 1228.29 20.3151 1228.36 19.5903C1228.33 18.8291 1228.99 18.2288 1229.72 18.2965L1231.74 18.3337C1232.47 18.4013 1233.01 18.9349 1233.04 19.696Z" stroke="#C6C2C2" stroke-miterlimit="10"/>
<path d="M1245.61 19.6554C1245.63 20.4165 1244.97 21.0169 1244.25 20.9492L1242.22 20.912C1241.42 21.0307 1240.82 20.3677 1240.85 19.736C1240.83 18.9748 1241.49 18.3745 1242.22 18.4422L1244.24 18.4794C1245.04 18.3607 1245.55 18.9874 1245.61 19.6554Z" stroke="#C6C2C2" stroke-miterlimit="10"/>
<path d="M1288.29 54.5904L1238.95 54.8L1244.4 40.8225L1242.9 39.1649L1244.31 35.5308L1245.85 37.0952L1251 23.8632L1249.46 22.2988L1251.5 17.0805L1300.89 17.0003L1298.82 22.3117L1300.3 23.7467L1295.01 37.3515L1292.95 37.4074L1292 39.8302L1293.32 41.4152L1288.29 54.5904Z" stroke="#C6C2C2" stroke-miterlimit="10"/>
<path d="M1244.4 40.8226L1293.32 41.4153" stroke="#C6C2C2" stroke-miterlimit="10"/>
<path d="M1242.9 39.1649L1292.07 39.6439" stroke="#C6C2C2" stroke-miterlimit="10"/>
<path d="M1245.76 37.059L1295.1 37.3878" stroke="#C6C2C2" stroke-miterlimit="10"/>
<path d="M1251 23.8632L1300.36 23.8762" stroke="#C6C2C2" stroke-miterlimit="10"/>
<path d="M1249.46 22.2988L1298.95 22.2548" stroke="#C6C2C2" stroke-miterlimit="10"/>
<path d="M1258.65 19.652C1258.68 20.4131 1258.01 21.0134 1257.29 20.9458L1255.23 21.0018C1254.47 21.0273 1253.87 20.3643 1253.93 19.6394C1253.91 18.8782 1254.57 18.2779 1255.3 18.3456L1257.32 18.3828C1258.08 18.3573 1258.68 19.0203 1258.65 19.652Z" stroke="#C6C2C2" stroke-miterlimit="10"/>
<path d="M1270.96 19.7252C1270.99 20.4864 1270.33 21.0867 1269.6 21.019L1267.58 20.9818C1266.82 21.0073 1266.22 20.3443 1266.28 19.6194C1266.26 18.8583 1266.92 18.258 1267.65 18.3256L1269.67 18.3628C1270.3 18.3942 1270.94 18.9641 1270.96 19.7252Z" stroke="#C6C2C2" stroke-miterlimit="10"/>
<path d="M1283.13 19.6326C1283.15 20.3937 1282.49 20.994 1281.76 20.9264L1279.74 20.8892C1278.98 20.9147 1278.38 20.2517 1278.45 19.5268C1278.42 18.7656 1279.08 18.1653 1279.81 18.233L1281.83 18.2702C1282.56 18.3378 1283.1 18.8714 1283.13 19.6326Z" stroke="#C6C2C2" stroke-miterlimit="10"/>
<path d="M1295.7 19.5919C1295.72 20.3531 1295.06 20.9534 1294.34 20.8857L1292.31 20.8485C1291.51 20.9672 1290.91 20.3042 1290.94 19.6725C1290.92 18.9114 1291.58 18.3111 1292.31 18.3787L1294.33 18.4159C1295.13 18.2972 1295.64 18.924 1295.7 19.5919Z" stroke="#C6C2C2" stroke-miterlimit="10"/>
<path d="M1386.48 54.3464L1337.14 54.556L1342.58 40.5785L1341.08 38.9209L1342.49 35.2868L1344.03 36.8512L1349.18 23.6192L1347.65 22.0547L1349.68 16.8365L1399.08 16.7563L1397.01 22.0677L1398.49 23.5027L1393.19 37.1074L1391.13 37.1634L1390.19 39.5862L1391.5 41.1712L1386.48 54.3464Z" stroke="#C6C2C2" stroke-miterlimit="10"/>
<path d="M1342.58 40.5786L1391.5 41.1713" stroke="#C6C2C2" stroke-miterlimit="10"/>
<path d="M1341.08 38.9209L1390.26 39.3998" stroke="#C6C2C2" stroke-miterlimit="10"/>
<path d="M1343.94 36.8149L1393.28 37.1438" stroke="#C6C2C2" stroke-miterlimit="10"/>
<path d="M1349.18 23.6191L1398.54 23.6321" stroke="#C6C2C2" stroke-miterlimit="10"/>
<path d="M1347.65 22.0547L1397.14 22.0108" stroke="#C6C2C2" stroke-miterlimit="10"/>
<path d="M1356.83 19.408C1356.86 20.1691 1356.2 20.7694 1355.47 20.7018L1353.41 20.7578C1352.65 20.7833 1352.05 20.1202 1352.12 19.3954C1352.09 18.6342 1352.75 18.0339 1353.48 18.1016L1355.5 18.1388C1356.27 18.1132 1356.87 18.7763 1356.83 19.408Z" stroke="#C6C2C2" stroke-miterlimit="10"/>
<path d="M1369.15 19.4812C1369.17 20.2423 1368.51 20.8427 1367.78 20.775L1365.76 20.7378C1365 20.7633 1364.4 20.1003 1364.47 19.3754C1364.44 18.6143 1365.1 18.014 1365.83 18.0816L1367.85 18.1188C1368.49 18.1502 1369.12 18.72 1369.15 19.4812Z" stroke="#C6C2C2" stroke-miterlimit="10"/>
<path d="M1381.31 19.3885C1381.34 20.1497 1380.67 20.75 1379.95 20.6824L1377.92 20.6451C1377.16 20.6707 1376.56 20.0076 1376.63 19.2828C1376.6 18.5216 1377.27 17.9213 1377.99 17.989L1380.02 18.0262C1380.74 18.0938 1381.28 18.6274 1381.31 19.3885Z" stroke="#C6C2C2" stroke-miterlimit="10"/>
<path d="M1393.88 19.3479C1393.91 20.1091 1393.24 20.7094 1392.52 20.6417L1390.49 20.6045C1389.7 20.7232 1389.1 20.0602 1389.13 19.4285C1389.1 18.6674 1389.77 18.067 1390.49 18.1347L1392.52 18.1719C1393.31 18.0532 1393.82 18.6799 1393.88 19.3479Z" stroke="#C6C2C2" stroke-miterlimit="10"/>
<path d="M1436.57 54.2829L1387.23 54.4925L1392.67 40.5151L1391.17 38.8574L1392.58 35.2233L1394.12 36.7877L1399.27 23.5557L1397.74 21.9913L1399.77 16.773L1449.17 16.6928L1447.1 22.0043L1448.58 23.4392L1443.28 37.044L1441.22 37.0999L1440.28 39.5227L1441.59 41.1077L1436.57 54.2829Z" stroke="#C6C2C2" stroke-miterlimit="10"/>
<path d="M1392.67 40.5151L1441.59 41.1078" stroke="#C6C2C2" stroke-miterlimit="10"/>
<path d="M1391.17 38.8575L1440.35 39.3364" stroke="#C6C2C2" stroke-miterlimit="10"/>
<path d="M1394.03 36.7515L1443.37 37.0803" stroke="#C6C2C2" stroke-miterlimit="10"/>
<path d="M1399.27 23.5557L1448.63 23.5687" stroke="#C6C2C2" stroke-miterlimit="10"/>
<path d="M1397.74 21.9913L1447.23 21.9474" stroke="#C6C2C2" stroke-miterlimit="10"/>
<path d="M1406.92 19.3445C1406.95 20.1056 1406.29 20.7059 1405.56 20.6383L1403.5 20.6943C1402.74 20.7198 1402.14 20.0568 1402.21 19.3319C1402.18 18.5708 1402.84 17.9704 1403.57 18.0381L1405.59 18.0753C1406.36 18.0498 1406.96 18.7128 1406.92 19.3445Z" stroke="#C6C2C2" stroke-miterlimit="10"/>
<path d="M1419.24 19.4177C1419.26 20.1789 1418.6 20.7792 1417.87 20.7115L1415.85 20.6743C1415.09 20.6999 1414.49 20.0368 1414.56 19.3119C1414.53 18.5508 1415.19 17.9505 1415.92 18.0181L1417.94 18.0553C1418.57 18.0867 1419.21 18.6566 1419.24 19.4177Z" stroke="#C6C2C2" stroke-miterlimit="10"/>
<path d="M1431.4 19.3251C1431.43 20.0862 1430.76 20.6865 1430.04 20.6189L1428.01 20.5817C1427.25 20.6072 1426.65 19.9442 1426.72 19.2193C1426.69 18.4581 1427.36 17.8578 1428.08 17.9255L1430.11 17.9627C1430.83 18.0303 1431.37 18.5639 1431.4 19.3251Z" stroke="#C6C2C2" stroke-miterlimit="10"/>
<path d="M1443.97 19.2844C1444 20.0456 1443.33 20.6459 1442.61 20.5782L1440.58 20.541C1439.79 20.6597 1439.19 19.9967 1439.22 19.365C1439.19 18.6039 1439.86 18.0036 1440.58 18.0712L1442.61 18.1084C1443.4 17.9897 1443.91 18.6165 1443.97 19.2844Z" stroke="#C6C2C2" stroke-miterlimit="10"/>
<path d="M446.93 55.7779L397.591 55.9875L403.034 42.01L401.534 40.3524L402.949 36.7183L404.486 38.2827L409.639 25.0507L408.102 23.4863L410.134 18.268L459.53 18.1878L457.462 23.4992L458.942 24.9342L453.644 38.539L451.583 38.5949L450.64 41.0177L451.954 42.6027L446.93 55.7779Z" stroke="#C6C2C2" stroke-miterlimit="10"/>
<path d="M403.034 42.0101L451.954 42.6028" stroke="#C6C2C2" stroke-miterlimit="10"/>
<path d="M401.534 40.3524L450.712 40.8314" stroke="#C6C2C2" stroke-miterlimit="10"/>
<path d="M404.393 38.2465L453.737 38.5753" stroke="#C6C2C2" stroke-miterlimit="10"/>
<path d="M409.639 25.0507L458.999 25.0637" stroke="#C6C2C2" stroke-miterlimit="10"/>
<path d="M408.102 23.4863L457.591 23.4423" stroke="#C6C2C2" stroke-miterlimit="10"/>
<path d="M417.288 20.8395C417.314 21.6006 416.651 22.2009 415.926 22.1333L413.865 22.1893C413.104 22.2148 412.504 21.5518 412.571 20.8269C412.546 20.0657 413.209 19.4654 413.934 19.5331L415.958 19.5703C416.719 19.5448 417.32 20.2078 417.288 20.8395Z" stroke="#C6C2C2" stroke-miterlimit="10"/>
<path d="M429.601 20.9127C429.627 21.6739 428.964 22.2742 428.239 22.2065L426.214 22.1693C425.453 22.1948 424.853 21.5318 424.921 20.8069C424.895 20.0458 425.558 19.4455 426.283 19.5131L428.308 19.5503C428.939 19.5817 429.576 20.1516 429.601 20.9127Z" stroke="#C6C2C2" stroke-miterlimit="10"/>
<path d="M441.764 20.8201C441.789 21.5812 441.126 22.1815 440.402 22.1139L438.377 22.0767C437.616 22.1022 437.016 21.4392 437.083 20.7143C437.058 19.9531 437.721 19.3528 438.446 19.4205L440.47 19.4577C441.195 19.5253 441.738 20.0589 441.764 20.8201Z" stroke="#C6C2C2" stroke-miterlimit="10"/>
<path d="M454.336 20.7794C454.361 21.5406 453.698 22.1409 452.973 22.0732L450.949 22.036C450.151 22.1547 449.551 21.4917 449.583 20.86C449.557 20.0989 450.22 19.4986 450.945 19.5662L452.969 19.6034C453.767 19.4847 454.274 20.1115 454.336 20.7794Z" stroke="#C6C2C2" stroke-miterlimit="10"/>
<path d="M347.749 55.9633L298.41 56.173L303.853 42.1955L302.352 40.5379L303.767 36.9037L305.305 38.4681L310.458 25.2361L308.92 23.6717L310.953 18.4534L360.349 18.3732L358.28 23.6847L359.761 25.1196L354.463 38.7244L352.402 38.7804L351.458 41.2031L352.773 42.7882L347.749 55.9633Z" stroke="#C6C2C2" stroke-miterlimit="10"/>
<path d="M303.853 42.1955L352.773 42.7882" stroke="#C6C2C2" stroke-miterlimit="10"/>
<path d="M302.352 40.5379L351.531 41.0168" stroke="#C6C2C2" stroke-miterlimit="10"/>
<path d="M305.211 38.4319L354.556 38.7607" stroke="#C6C2C2" stroke-miterlimit="10"/>
<path d="M310.457 25.2361L359.817 25.2491" stroke="#C6C2C2" stroke-miterlimit="10"/>
<path d="M308.92 23.6717L358.41 23.6278" stroke="#C6C2C2" stroke-miterlimit="10"/>
<path d="M318.107 21.0249C318.133 21.7861 317.47 22.3864 316.745 22.3187L314.684 22.3747C313.923 22.4002 313.322 21.7372 313.39 21.0123C313.365 20.2512 314.028 19.6509 314.752 19.7185L316.777 19.7557C317.538 19.7302 318.138 20.3932 318.107 21.0249Z" stroke="#C6C2C2" stroke-miterlimit="10"/>
<path d="M330.42 21.0981C330.445 21.8593 329.782 22.4596 329.058 22.3919L327.033 22.3547C326.272 22.3803 325.672 21.7172 325.739 20.9924C325.714 20.2312 326.377 19.6309 327.102 19.6986L329.126 19.7358C329.758 19.7671 330.394 20.337 330.42 21.0981Z" stroke="#C6C2C2" stroke-miterlimit="10"/>
<path d="M342.583 21.0055C342.608 21.7666 341.945 22.3669 341.22 22.2993L339.196 22.2621C338.434 22.2876 337.834 21.6246 337.902 20.8997C337.876 20.1386 338.539 19.5383 339.264 19.6059L341.289 19.6431C342.014 19.7108 342.557 20.2443 342.583 21.0055Z" stroke="#C6C2C2" stroke-miterlimit="10"/>
<path d="M355.154 20.9648C355.18 21.726 354.517 22.3263 353.792 22.2587L351.768 22.2215C350.97 22.3402 350.37 21.6771 350.401 21.0454C350.376 20.2843 351.039 19.684 351.763 19.7516L353.788 19.7888C354.585 19.6701 355.093 20.2969 355.154 20.9648Z" stroke="#C6C2C2" stroke-miterlimit="10"/>
<path d="M397.839 55.8998L348.5 56.1095L353.943 42.132L352.442 40.4744L353.857 36.8402L355.394 38.4047L360.547 25.1726L359.01 23.6082L361.042 18.3899L410.439 18.3097L408.37 23.6212L409.851 25.0561L404.552 38.6609L402.492 38.7169L401.548 41.1397L402.862 42.7247L397.839 55.8998Z" stroke="#C6C2C2" stroke-miterlimit="10"/>
<path d="M353.943 42.132L402.863 42.7247" stroke="#C6C2C2" stroke-miterlimit="10"/>
<path d="M352.442 40.4744L401.621 40.9533" stroke="#C6C2C2" stroke-miterlimit="10"/>
<path d="M355.301 38.3684L404.645 38.6972" stroke="#C6C2C2" stroke-miterlimit="10"/>
<path d="M360.547 25.1726L409.907 25.1856" stroke="#C6C2C2" stroke-miterlimit="10"/>
<path d="M359.01 23.6082L408.5 23.5643" stroke="#C6C2C2" stroke-miterlimit="10"/>
<path d="M368.197 20.9614C368.222 21.7226 367.559 22.3229 366.835 22.2552L364.774 22.3112C364.013 22.3367 363.412 21.6737 363.48 20.9488C363.454 20.1877 364.117 19.5874 364.842 19.655L366.867 19.6922C367.628 19.6667 368.228 20.3298 368.197 20.9614Z" stroke="#C6C2C2" stroke-miterlimit="10"/>
<path d="M380.51 21.0347C380.535 21.7958 379.872 22.3961 379.147 22.3285L377.123 22.2913C376.362 22.3168 375.761 21.6538 375.829 20.9289C375.804 20.1677 376.467 19.5674 377.191 19.6351L379.216 19.6723C379.848 19.7037 380.484 20.2735 380.51 21.0347Z" stroke="#C6C2C2" stroke-miterlimit="10"/>
<path d="M392.672 20.942C392.698 21.7032 392.035 22.3035 391.31 22.2358L389.285 22.1986C388.524 22.2241 387.924 21.5611 387.992 20.8362C387.966 20.0751 388.629 19.4748 389.354 19.5424L391.379 19.5796C392.103 19.6473 392.647 20.1809 392.672 20.942Z" stroke="#C6C2C2" stroke-miterlimit="10"/>
<path d="M405.244 20.9014C405.27 21.6625 404.607 22.2628 403.882 22.1952L401.857 22.158C401.06 22.2767 400.46 21.6136 400.491 20.982C400.465 20.2208 401.128 19.6205 401.853 19.6882L403.878 19.7254C404.675 19.6067 405.182 20.2334 405.244 20.9014Z" stroke="#C6C2C2" stroke-miterlimit="10"/>
<path d="M595.204 55.4704L545.865 55.68L551.308 41.7026L549.807 40.0449L551.222 36.4108L552.759 37.9752L557.912 24.7432L556.375 23.1788L558.407 17.9605L607.804 17.8803L605.735 23.1918L607.215 24.6267L601.917 38.2315L599.857 38.2874L598.913 40.7102L600.227 42.2952L595.204 55.4704Z" stroke="#C6C2C2" stroke-miterlimit="10"/>
<path d="M551.308 41.7026L600.228 42.2953" stroke="#C6C2C2" stroke-miterlimit="10"/>
<path d="M549.807 40.045L598.986 40.5239" stroke="#C6C2C2" stroke-miterlimit="10"/>
<path d="M552.666 37.939L602.01 38.2678" stroke="#C6C2C2" stroke-miterlimit="10"/>
<path d="M557.912 24.7432L607.272 24.7562" stroke="#C6C2C2" stroke-miterlimit="10"/>
<path d="M556.375 23.1788L605.865 23.1349" stroke="#C6C2C2" stroke-miterlimit="10"/>
<path d="M565.562 20.532C565.587 21.2931 564.924 21.8934 564.199 21.8258L562.139 21.8818C561.378 21.9073 560.777 21.2443 560.845 20.5194C560.819 19.7583 561.482 19.1579 562.207 19.2256L564.232 19.2628C564.993 19.2373 565.593 19.9003 565.562 20.532Z" stroke="#C6C2C2" stroke-miterlimit="10"/>
<path d="M577.875 20.6052C577.9 21.3664 577.237 21.9667 576.512 21.899L574.488 21.8618C573.727 21.8874 573.126 21.2243 573.194 20.4994C573.169 19.7383 573.832 19.138 574.556 19.2056L576.581 19.2428C577.213 19.2742 577.849 19.8441 577.875 20.6052Z" stroke="#C6C2C2" stroke-miterlimit="10"/>
<path d="M590.037 20.5126C590.063 21.2737 589.4 21.874 588.675 21.8064L586.65 21.7692C585.889 21.7947 585.289 21.1317 585.357 20.4068C585.331 19.6456 585.994 19.0453 586.719 19.113L588.744 19.1502C589.468 19.2178 590.012 19.7514 590.037 20.5126Z" stroke="#C6C2C2" stroke-miterlimit="10"/>
<path d="M602.609 20.4719C602.635 21.2331 601.972 21.8334 601.247 21.7657L599.222 21.7285C598.425 21.8472 597.825 21.1842 597.856 20.5525C597.83 19.7914 598.493 19.1911 599.218 19.2587L601.243 19.2959C602.04 19.1772 602.547 19.804 602.609 20.4719Z" stroke="#C6C2C2" stroke-miterlimit="10"/>
<path d="M496.022 55.6558L446.683 55.8655L452.126 41.888L450.625 40.2304L452.041 36.5962L453.578 38.1606L458.731 24.9286L457.194 23.3642L459.226 18.1459L508.622 18.0657L506.554 23.3772L508.034 24.8121L502.736 38.4169L500.675 38.4729L499.731 40.8956L501.046 42.4807L496.022 55.6558Z" stroke="#C6C2C2" stroke-miterlimit="10"/>
<path d="M452.126 41.888L501.046 42.4807" stroke="#C6C2C2" stroke-miterlimit="10"/>
<path d="M450.625 40.2304L499.804 40.7093" stroke="#C6C2C2" stroke-miterlimit="10"/>
<path d="M453.485 38.1244L502.829 38.4532" stroke="#C6C2C2" stroke-miterlimit="10"/>
<path d="M458.731 24.9286L508.091 24.9416" stroke="#C6C2C2" stroke-miterlimit="10"/>
<path d="M457.194 23.3642L506.683 23.3203" stroke="#C6C2C2" stroke-miterlimit="10"/>
<path d="M466.38 20.7174C466.406 21.4786 465.743 22.0789 465.018 22.0112L462.957 22.0672C462.196 22.0927 461.596 21.4297 461.663 20.7048C461.638 19.9437 462.301 19.3434 463.026 19.411L465.05 19.4482C465.811 19.4227 466.412 20.0857 466.38 20.7174Z" stroke="#C6C2C2" stroke-miterlimit="10"/>
<path d="M478.693 20.7906C478.719 21.5518 478.056 22.1521 477.331 22.0845L475.306 22.0472C474.545 22.0728 473.945 21.4097 474.012 20.6849C473.987 19.9237 474.65 19.3234 475.375 19.3911L477.399 19.4283C478.031 19.4596 478.668 20.0295 478.693 20.7906Z" stroke="#C6C2C2" stroke-miterlimit="10"/>
<path d="M490.856 20.698C490.881 21.4591 490.218 22.0595 489.493 21.9918L487.469 21.9546C486.708 21.9801 486.107 21.3171 486.175 20.5922C486.149 19.8311 486.813 19.2308 487.537 19.2984L489.562 19.3356C490.287 19.4033 490.83 19.9368 490.856 20.698Z" stroke="#C6C2C2" stroke-miterlimit="10"/>
<path d="M503.428 20.6574C503.453 21.4185 502.79 22.0188 502.065 21.9512L500.041 21.914C499.243 22.0327 498.643 21.3696 498.674 20.7379C498.649 19.9768 499.312 19.3765 500.037 19.4441L502.061 19.4813C502.859 19.3626 503.366 19.9894 503.428 20.6574Z" stroke="#C6C2C2" stroke-miterlimit="10"/>
<path d="M546.112 55.5923L496.773 55.802L502.216 41.8245L500.715 40.1669L502.131 36.5327L503.668 38.0972L508.821 24.8651L507.284 23.3007L509.316 18.0824L558.712 18.0023L556.644 23.3137L558.124 24.7487L552.826 38.3534L550.765 38.4094L549.821 40.8322L551.136 42.4172L546.112 55.5923Z" stroke="#C6C2C2" stroke-miterlimit="10"/>
<path d="M502.216 41.8245L551.136 42.4172" stroke="#C6C2C2" stroke-miterlimit="10"/>
<path d="M500.715 40.1669L549.894 40.6458" stroke="#C6C2C2" stroke-miterlimit="10"/>
<path d="M503.574 38.0609L552.919 38.3897" stroke="#C6C2C2" stroke-miterlimit="10"/>
<path d="M508.82 24.8651L558.18 24.8781" stroke="#C6C2C2" stroke-miterlimit="10"/>
<path d="M507.283 23.3007L556.773 23.2568" stroke="#C6C2C2" stroke-miterlimit="10"/>
<path d="M516.47 20.6539C516.496 21.4151 515.833 22.0154 515.108 21.9477L513.047 22.0037C512.286 22.0293 511.685 21.3662 511.753 20.6414C511.728 19.8802 512.391 19.2799 513.115 19.3475L515.14 19.3847C515.901 19.3592 516.501 20.0223 516.47 20.6539Z" stroke="#C6C2C2" stroke-miterlimit="10"/>
<path d="M528.783 20.7272C528.808 21.4883 528.145 22.0886 527.421 22.021L525.396 21.9838C524.635 22.0093 524.035 21.3463 524.102 20.6214C524.077 19.8602 524.74 19.2599 525.465 19.3276L527.489 19.3648C528.121 19.3962 528.757 19.966 528.783 20.7272Z" stroke="#C6C2C2" stroke-miterlimit="10"/>
<path d="M540.946 20.6345C540.971 21.3957 540.308 21.996 539.583 21.9283L537.559 21.8911C536.798 21.9166 536.197 21.2536 536.265 20.5287C536.239 19.7676 536.902 19.1673 537.627 19.2349L539.652 19.2721C540.377 19.3398 540.92 19.8734 540.946 20.6345Z" stroke="#C6C2C2" stroke-miterlimit="10"/>
<path d="M553.517 20.5939C553.543 21.355 552.88 21.9553 552.155 21.8877L550.131 21.8505C549.333 21.9692 548.733 21.3061 548.764 20.6745C548.739 19.9133 549.402 19.313 550.127 19.3807L552.151 19.4179C552.948 19.2992 553.456 19.9259 553.517 20.5939Z" stroke="#C6C2C2" stroke-miterlimit="10"/>
<path d="M744.007 55.2052L694.667 55.4149L700.111 41.4374L698.61 39.7798L700.025 36.1457L701.562 37.7101L706.715 24.478L705.178 22.9136L707.21 17.6954L756.607 17.6152L754.538 22.9266L756.018 24.3616L750.72 37.9663L748.659 38.0223L747.716 40.4451L749.03 42.0301L744.007 55.2052Z" stroke="#C6C2C2" stroke-miterlimit="10"/>
<path d="M700.111 41.4374L749.03 42.0301" stroke="#C6C2C2" stroke-miterlimit="10"/>
<path d="M698.61 39.7798L747.788 40.2587" stroke="#C6C2C2" stroke-miterlimit="10"/>
<path d="M701.469 37.6738L750.813 38.0026" stroke="#C6C2C2" stroke-miterlimit="10"/>
<path d="M706.715 24.478L756.075 24.491" stroke="#C6C2C2" stroke-miterlimit="10"/>
<path d="M705.178 22.9136L754.667 22.8697" stroke="#C6C2C2" stroke-miterlimit="10"/>
<path d="M714.365 20.2669C714.39 21.028 713.727 21.6283 713.002 21.5607L710.941 21.6166C710.18 21.6422 709.58 20.9791 709.648 20.2543C709.622 19.4931 710.285 18.8928 711.01 18.9605L713.035 18.9977C713.796 18.9721 714.396 19.6352 714.365 20.2669Z" stroke="#C6C2C2" stroke-miterlimit="10"/>
<path d="M726.677 20.3401C726.703 21.1012 726.04 21.7015 725.315 21.6339L723.291 21.5967C722.529 21.6222 721.929 20.9592 721.997 20.2343C721.971 19.4732 722.634 18.8729 723.359 18.9405L725.384 18.9777C726.015 19.0091 726.652 19.5789 726.677 20.3401Z" stroke="#C6C2C2" stroke-miterlimit="10"/>
<path d="M738.84 20.2474C738.866 21.0086 738.203 21.6089 737.478 21.5412L735.453 21.504C734.692 21.5296 734.092 20.8665 734.159 20.1417C734.134 19.3805 734.797 18.7802 735.522 18.8479L737.546 18.8851C738.271 18.9527 738.815 19.4863 738.84 20.2474Z" stroke="#C6C2C2" stroke-miterlimit="10"/>
<path d="M751.412 20.2068C751.437 20.9679 750.774 21.5683 750.05 21.5006L748.025 21.4634C747.228 21.5821 746.627 20.9191 746.659 20.2874C746.633 19.5262 747.296 18.9259 748.021 18.9936L750.046 19.0308C750.843 18.9121 751.35 19.5388 751.412 20.2068Z" stroke="#C6C2C2" stroke-miterlimit="10"/>
<path d="M644.826 55.3908L595.486 55.6005L600.929 41.623L599.429 39.9654L600.844 36.3312L602.381 37.8956L607.534 24.6636L605.997 23.0992L608.029 17.8809L657.425 17.8007L655.357 23.1122L656.837 24.5471L651.539 38.1519L649.478 38.2079L648.535 40.6306L649.849 42.2157L644.826 55.3908Z" stroke="#C6C2C2" stroke-miterlimit="10"/>
<path d="M600.929 41.623L649.849 42.2157" stroke="#C6C2C2" stroke-miterlimit="10"/>
<path d="M599.429 39.9654L648.607 40.4443" stroke="#C6C2C2" stroke-miterlimit="10"/>
<path d="M602.288 37.8594L651.632 38.1882" stroke="#C6C2C2" stroke-miterlimit="10"/>
<path d="M607.534 24.6636L656.894 24.6766" stroke="#C6C2C2" stroke-miterlimit="10"/>
<path d="M605.997 23.0992L655.486 23.0553" stroke="#C6C2C2" stroke-miterlimit="10"/>
<path d="M615.183 20.4524C615.209 21.2135 614.546 21.8139 613.821 21.7462L611.76 21.8022C610.999 21.8277 610.399 21.1647 610.466 20.4398C610.441 19.6787 611.104 19.0784 611.829 19.146L613.853 19.1832C614.615 19.1577 615.215 19.8207 615.183 20.4524Z" stroke="#C6C2C2" stroke-miterlimit="10"/>
<path d="M627.496 20.5256C627.522 21.2868 626.859 21.8871 626.134 21.8194L624.109 21.7822C623.348 21.8078 622.748 21.1447 622.816 20.4199C622.79 19.6587 623.453 19.0584 624.178 19.1261L626.203 19.1633C626.834 19.1946 627.471 19.7645 627.496 20.5256Z" stroke="#C6C2C2" stroke-miterlimit="10"/>
<path d="M639.659 20.433C639.684 21.1941 639.021 21.7944 638.297 21.7268L636.272 21.6896C635.511 21.7151 634.911 21.0521 634.978 20.3272C634.953 19.5661 635.616 18.9657 636.341 19.0334L638.365 19.0706C639.09 19.1383 639.633 19.6718 639.659 20.433Z" stroke="#C6C2C2" stroke-miterlimit="10"/>
<path d="M652.231 20.3923C652.256 21.1535 651.593 21.7538 650.868 21.6861L648.844 21.6489C648.046 21.7677 647.446 21.1046 647.478 20.4729C647.452 19.7118 648.115 19.1115 648.84 19.1791L650.864 19.2163C651.662 19.0976 652.169 19.7244 652.231 20.3923Z" stroke="#C6C2C2" stroke-miterlimit="10"/>
<path d="M694.915 55.3273L645.576 55.537L651.019 41.5595L649.518 39.9019L650.934 36.2677L652.471 37.8322L657.624 24.6001L656.087 23.0357L658.119 17.8174L707.515 17.7372L705.447 23.0487L706.927 24.4836L701.629 38.0884L699.568 38.1444L698.624 40.5671L699.939 42.1522L694.915 55.3273Z" stroke="#C6C2C2" stroke-miterlimit="10"/>
<path d="M651.019 41.5595L699.939 42.1522" stroke="#C6C2C2" stroke-miterlimit="10"/>
<path d="M649.519 39.9019L698.697 40.3808" stroke="#C6C2C2" stroke-miterlimit="10"/>
<path d="M652.378 37.7959L701.722 38.1247" stroke="#C6C2C2" stroke-miterlimit="10"/>
<path d="M657.624 24.6001L706.984 24.6131" stroke="#C6C2C2" stroke-miterlimit="10"/>
<path d="M656.087 23.0357L705.576 22.9918" stroke="#C6C2C2" stroke-miterlimit="10"/>
<path d="M665.273 20.3889C665.299 21.1501 664.636 21.7504 663.911 21.6827L661.85 21.7387C661.089 21.7642 660.489 21.1012 660.556 20.3763C660.531 19.6152 661.194 19.0149 661.919 19.0825L663.943 19.1197C664.704 19.0942 665.305 19.7572 665.273 20.3889Z" stroke="#C6C2C2" stroke-miterlimit="10"/>
<path d="M677.586 20.4622C677.612 21.2233 676.949 21.8236 676.224 21.756L674.199 21.7188C673.438 21.7443 672.838 21.0812 672.905 20.3564C672.88 19.5952 673.543 18.9949 674.268 19.0626L676.292 19.0998C676.924 19.1311 677.561 19.701 677.586 20.4622Z" stroke="#C6C2C2" stroke-miterlimit="10"/>
<path d="M689.749 20.3695C689.774 21.1307 689.111 21.731 688.386 21.6633L686.362 21.6261C685.601 21.6516 685 20.9886 685.068 20.2637C685.043 19.5026 685.706 18.9023 686.43 18.9699L688.455 19.0071C689.18 19.0748 689.723 19.6084 689.749 20.3695Z" stroke="#C6C2C2" stroke-miterlimit="10"/>
<path d="M702.321 20.3289C702.346 21.09 701.683 21.6903 700.958 21.6227L698.934 21.5855C698.136 21.7042 697.536 21.0411 697.567 20.4095C697.542 19.6483 698.205 19.048 698.93 19.1157L700.954 19.1529C701.752 19.0341 702.259 19.6609 702.321 20.3289Z" stroke="#C6C2C2" stroke-miterlimit="10"/>
<path d="M892.28 54.8978L842.941 55.1074L848.384 41.1299L846.883 39.4723L848.298 35.8382L849.836 37.4026L854.989 24.1706L853.451 22.6061L855.484 17.3879L904.88 17.3077L902.811 22.6191L904.292 24.0541L898.994 37.6588L896.933 37.7148L895.989 40.1376L897.304 41.7226L892.28 54.8978Z" stroke="#C6C2C2" stroke-miterlimit="10"/>
<path d="M848.384 41.1299L897.304 41.7226" stroke="#C6C2C2" stroke-miterlimit="10"/>
<path d="M846.883 39.4723L896.062 39.9512" stroke="#C6C2C2" stroke-miterlimit="10"/>
<path d="M849.742 37.3663L899.087 37.6952" stroke="#C6C2C2" stroke-miterlimit="10"/>
<path d="M854.988 24.1705L904.348 24.1835" stroke="#C6C2C2" stroke-miterlimit="10"/>
<path d="M853.451 22.6061L902.941 22.5622" stroke="#C6C2C2" stroke-miterlimit="10"/>
<path d="M862.638 19.9594C862.664 20.7205 862.001 21.3208 861.276 21.2532L859.215 21.3091C858.454 21.3347 857.853 20.6716 857.921 19.9468C857.896 19.1856 858.559 18.5853 859.283 18.653L861.308 18.6902C862.069 18.6646 862.669 19.3277 862.638 19.9594Z" stroke="#C6C2C2" stroke-miterlimit="10"/>
<path d="M874.951 20.0326C874.976 20.7937 874.313 21.394 873.589 21.3264L871.564 21.2892C870.803 21.3147 870.203 20.6517 870.27 19.9268C870.245 19.1657 870.908 18.5654 871.633 18.633L873.657 18.6702C874.289 18.7016 874.925 19.2714 874.951 20.0326Z" stroke="#C6C2C2" stroke-miterlimit="10"/>
<path d="M887.114 19.9399C887.139 20.7011 886.476 21.3014 885.751 21.2337L883.727 21.1965C882.965 21.2221 882.365 20.559 882.433 19.8342C882.407 19.073 883.07 18.4727 883.795 18.5404L885.82 18.5776C886.545 18.6452 887.088 19.1788 887.114 19.9399Z" stroke="#C6C2C2" stroke-miterlimit="10"/>
<path d="M899.685 19.8993C899.711 20.6604 899.048 21.2608 898.323 21.1931L896.299 21.1559C895.501 21.2746 894.901 20.6116 894.932 19.9799C894.907 19.2187 895.57 18.6184 896.295 18.6861L898.319 18.7233C899.116 18.6046 899.624 19.2313 899.685 19.8993Z" stroke="#C6C2C2" stroke-miterlimit="10"/>
<path d="M793.098 55.0833L743.759 55.293L749.202 41.3155L747.702 39.6579L749.117 36.0237L750.654 37.5881L755.807 24.3561L754.27 22.7917L756.302 17.5734L805.698 17.4932L803.63 22.8047L805.11 24.2396L799.812 37.8444L797.751 37.9004L796.808 40.3231L798.122 41.9082L793.098 55.0833Z" stroke="#C6C2C2" stroke-miterlimit="10"/>
<path d="M749.202 41.3155L798.122 41.9082" stroke="#C6C2C2" stroke-miterlimit="10"/>
<path d="M747.702 39.6579L796.88 40.1368" stroke="#C6C2C2" stroke-miterlimit="10"/>
<path d="M750.561 37.5519L799.905 37.8807" stroke="#C6C2C2" stroke-miterlimit="10"/>
<path d="M755.807 24.3561L805.167 24.3691" stroke="#C6C2C2" stroke-miterlimit="10"/>
<path d="M754.27 22.7917L803.759 22.7478" stroke="#C6C2C2" stroke-miterlimit="10"/>
<path d="M763.456 20.1449C763.482 20.9061 762.819 21.5064 762.094 21.4387L760.033 21.4947C759.272 21.5202 758.672 20.8572 758.739 20.1323C758.714 19.3712 759.377 18.7709 760.102 18.8385L762.126 18.8757C762.887 18.8502 763.488 19.5132 763.456 20.1449Z" stroke="#C6C2C2" stroke-miterlimit="10"/>
<path d="M775.769 20.2181C775.795 20.9793 775.132 21.5796 774.407 21.5119L772.382 21.4747C771.621 21.5003 771.021 20.8372 771.089 20.1124C771.063 19.3512 771.726 18.7509 772.451 18.8186L774.475 18.8558C775.107 18.8871 775.744 19.457 775.769 20.2181Z" stroke="#C6C2C2" stroke-miterlimit="10"/>
<path d="M787.932 20.1255C787.957 20.8866 787.294 21.4869 786.57 21.4193L784.545 21.3821C783.784 21.4076 783.184 20.7446 783.251 20.0197C783.226 19.2586 783.889 18.6583 784.614 18.7259L786.638 18.7631C787.363 18.8308 787.906 19.3643 787.932 20.1255Z" stroke="#C6C2C2" stroke-miterlimit="10"/>
<path d="M800.504 20.0848C800.529 20.846 799.866 21.4463 799.141 21.3786L797.117 21.3414C796.319 21.4602 795.719 20.7971 795.75 20.1654C795.725 19.4043 796.388 18.804 797.113 18.8716L799.137 18.9088C799.935 18.7901 800.442 19.4169 800.504 20.0848Z" stroke="#C6C2C2" stroke-miterlimit="10"/>
<path d="M843.188 55.0198L793.849 55.2295L799.292 41.252L797.791 39.5944L799.207 35.9602L800.744 37.5247L805.897 24.2926L804.36 22.7282L806.392 17.5099L855.788 17.4297L853.72 22.7412L855.2 24.1761L849.902 37.7809L847.841 37.8369L846.897 40.2597L848.212 41.8447L843.188 55.0198Z" stroke="#C6C2C2" stroke-miterlimit="10"/>
<path d="M799.292 41.252L848.212 41.8447" stroke="#C6C2C2" stroke-miterlimit="10"/>
<path d="M797.791 39.5944L846.97 40.0733" stroke="#C6C2C2" stroke-miterlimit="10"/>
<path d="M800.651 37.4884L849.995 37.8172" stroke="#C6C2C2" stroke-miterlimit="10"/>
<path d="M805.897 24.2926L855.257 24.3056" stroke="#C6C2C2" stroke-miterlimit="10"/>
<path d="M804.36 22.7282L853.849 22.6843" stroke="#C6C2C2" stroke-miterlimit="10"/>
<path d="M813.546 20.0814C813.572 20.8426 812.909 21.4429 812.184 21.3752L810.123 21.4312C809.362 21.4567 808.762 20.7937 808.829 20.0688C808.804 19.3077 809.467 18.7074 810.192 18.775L812.216 18.8122C812.977 18.7867 813.578 19.4498 813.546 20.0814Z" stroke="#C6C2C2" stroke-miterlimit="10"/>
<path d="M825.859 20.1547C825.885 20.9158 825.222 21.5161 824.497 21.4485L822.472 21.4113C821.711 21.4368 821.111 20.7737 821.178 20.0489C821.153 19.2877 821.816 18.6874 822.541 18.7551L824.565 18.7923C825.197 18.8236 825.834 19.3935 825.859 20.1547Z" stroke="#C6C2C2" stroke-miterlimit="10"/>
<path d="M838.022 20.062C838.047 20.8232 837.384 21.4235 836.659 21.3558L834.635 21.3186C833.874 21.3441 833.273 20.6811 833.341 19.9562C833.316 19.1951 833.979 18.5948 834.703 18.6624L836.728 18.6996C837.453 18.7673 837.996 19.3009 838.022 20.062Z" stroke="#C6C2C2" stroke-miterlimit="10"/>
<path d="M850.594 20.0214C850.619 20.7825 849.956 21.3828 849.231 21.3152L847.207 21.278C846.409 21.3967 845.809 20.7336 845.84 20.102C845.815 19.3408 846.478 18.7405 847.203 18.8082L849.227 18.8454C850.025 18.7266 850.532 19.3534 850.594 20.0214Z" stroke="#C6C2C2" stroke-miterlimit="10"/>
<path d="M1040.55 54.5904L991.214 54.8L996.657 40.8225L995.156 39.1649L996.571 35.5308L998.109 37.0952L1003.26 23.8632L1001.72 22.2988L1003.76 17.0805L1053.15 17.0003L1051.08 22.3117L1052.56 23.7467L1047.27 37.3515L1045.21 37.4074L1044.26 39.8302L1045.58 41.4152L1040.55 54.5904Z" stroke="#C6C2C2" stroke-miterlimit="10"/>
<path d="M996.657 40.8226L1045.58 41.4153" stroke="#C6C2C2" stroke-miterlimit="10"/>
<path d="M995.156 39.1649L1044.33 39.6439" stroke="#C6C2C2" stroke-miterlimit="10"/>
<path d="M998.015 37.059L1047.36 37.3878" stroke="#C6C2C2" stroke-miterlimit="10"/>
<path d="M1003.26 23.8632L1052.62 23.8762" stroke="#C6C2C2" stroke-miterlimit="10"/>
<path d="M1001.72 22.2988L1051.21 22.2548" stroke="#C6C2C2" stroke-miterlimit="10"/>
<path d="M1010.91 19.652C1010.94 20.4131 1010.27 21.0134 1009.55 20.9458L1007.49 21.0018C1006.73 21.0273 1006.13 20.3643 1006.19 19.6394C1006.17 18.8782 1006.83 18.2779 1007.56 18.3456L1009.58 18.3828C1010.34 18.3573 1010.94 19.0203 1010.91 19.652Z" stroke="#C6C2C2" stroke-miterlimit="10"/>
<path d="M1023.22 19.7252C1023.25 20.4864 1022.59 21.0867 1021.86 21.019L1019.84 20.9818C1019.08 21.0073 1018.48 20.3443 1018.54 19.6194C1018.52 18.8583 1019.18 18.258 1019.91 18.3256L1021.93 18.3628C1022.56 18.3942 1023.2 18.9641 1023.22 19.7252Z" stroke="#C6C2C2" stroke-miterlimit="10"/>
<path d="M1035.39 19.6326C1035.41 20.3937 1034.75 20.994 1034.02 20.9264L1032 20.8892C1031.24 20.9147 1030.64 20.2517 1030.71 19.5268C1030.68 18.7656 1031.34 18.1653 1032.07 18.233L1034.09 18.2702C1034.82 18.3378 1035.36 18.8714 1035.39 19.6326Z" stroke="#C6C2C2" stroke-miterlimit="10"/>
<path d="M1047.96 19.5919C1047.98 20.3531 1047.32 20.9534 1046.6 20.8857L1044.57 20.8485C1043.77 20.9672 1043.17 20.3042 1043.21 19.6725C1043.18 18.9114 1043.84 18.3111 1044.57 18.3787L1046.59 18.4159C1047.39 18.2972 1047.9 18.924 1047.96 19.5919Z" stroke="#C6C2C2" stroke-miterlimit="10"/>
<path d="M941.371 54.7758L892.032 54.9855L897.475 41.008L895.975 39.3504L897.39 35.7162L898.927 37.2806L904.08 24.0486L902.543 22.4842L904.575 17.2659L953.971 17.1857L951.903 22.4972L953.383 23.9321L948.085 37.5369L946.024 37.5929L945.081 40.0156L946.395 41.6007L941.371 54.7758Z" stroke="#C6C2C2" stroke-miterlimit="10"/>
<path d="M897.475 41.008L946.395 41.6007" stroke="#C6C2C2" stroke-miterlimit="10"/>
<path d="M895.975 39.3504L945.153 39.8293" stroke="#C6C2C2" stroke-miterlimit="10"/>
<path d="M898.834 37.2444L948.178 37.5732" stroke="#C6C2C2" stroke-miterlimit="10"/>
<path d="M904.08 24.0486L953.44 24.0616" stroke="#C6C2C2" stroke-miterlimit="10"/>
<path d="M902.543 22.4842L952.032 22.4403" stroke="#C6C2C2" stroke-miterlimit="10"/>
<path d="M911.729 19.8374C911.755 20.5986 911.092 21.1989 910.367 21.1312L908.306 21.1872C907.545 21.2127 906.945 20.5497 907.012 19.8248C906.987 19.0637 907.65 18.4634 908.375 18.531L910.399 18.5682C911.16 18.5427 911.761 19.2057 911.729 19.8374Z" stroke="#C6C2C2" stroke-miterlimit="10"/>
<path d="M924.042 19.9106C924.068 20.6718 923.405 21.2721 922.68 21.2044L920.655 21.1672C919.894 21.1928 919.294 20.5297 919.362 19.8049C919.336 19.0437 919.999 18.4434 920.724 18.5111L922.748 18.5483C923.38 18.5796 924.017 19.1495 924.042 19.9106Z" stroke="#C6C2C2" stroke-miterlimit="10"/>
<path d="M936.205 19.818C936.23 20.5791 935.567 21.1794 934.842 21.1118L932.818 21.0746C932.057 21.1001 931.456 20.4371 931.524 19.7122C931.499 18.9511 932.162 18.3508 932.887 18.4184L934.911 18.4556C935.636 18.5233 936.179 19.0568 936.205 19.818Z" stroke="#C6C2C2" stroke-miterlimit="10"/>
<path d="M948.777 19.7773C948.802 20.5385 948.139 21.1388 947.414 21.0712L945.39 21.034C944.592 21.1527 943.992 20.4896 944.023 19.8579C943.998 19.0968 944.661 18.4965 945.386 18.5641L947.41 18.6013C948.208 18.4826 948.715 19.1094 948.777 19.7773Z" stroke="#C6C2C2" stroke-miterlimit="10"/>
<path d="M991.461 54.7123L942.122 54.922L947.565 40.9445L946.064 39.2869L947.48 35.6527L949.017 37.2172L954.17 23.9851L952.633 22.4207L954.665 17.2024L1004.06 17.1222L1001.99 22.4337L1003.47 23.8686L998.175 37.4734L996.114 37.5294L995.17 39.9522L996.485 41.5372L991.461 54.7123Z" stroke="#C6C2C2" stroke-miterlimit="10"/>
<path d="M947.565 40.9445L996.485 41.5372" stroke="#C6C2C2" stroke-miterlimit="10"/>
<path d="M946.064 39.2869L995.243 39.7658" stroke="#C6C2C2" stroke-miterlimit="10"/>
<path d="M948.923 37.1809L998.268 37.5097" stroke="#C6C2C2" stroke-miterlimit="10"/>
<path d="M954.17 23.9851L1003.53 23.9981" stroke="#C6C2C2" stroke-miterlimit="10"/>
<path d="M952.633 22.4207L1002.12 22.3768" stroke="#C6C2C2" stroke-miterlimit="10"/>
<path d="M961.819 19.7739C961.845 20.5351 961.182 21.1354 960.457 21.0677L958.396 21.1237C957.635 21.1492 957.035 20.4862 957.102 19.7613C957.077 19.0002 957.74 18.3999 958.465 18.4675L960.489 18.5047C961.25 18.4792 961.851 19.1423 961.819 19.7739Z" stroke="#C6C2C2" stroke-miterlimit="10"/>
<path d="M974.132 19.8472C974.158 20.6083 973.495 21.2086 972.77 21.141L970.745 21.1038C969.984 21.1293 969.384 20.4663 969.451 19.7414C969.426 18.9802 970.089 18.3799 970.814 18.4476L972.838 18.4848C973.47 18.5162 974.107 19.086 974.132 19.8472Z" stroke="#C6C2C2" stroke-miterlimit="10"/>
<path d="M986.295 19.7545C986.32 20.5157 985.657 21.116 984.932 21.0483L982.908 21.0111C982.147 21.0366 981.546 20.3736 981.614 19.6487C981.588 18.8876 982.252 18.2873 982.976 18.3549L985.001 18.3921C985.726 18.4598 986.269 18.9934 986.295 19.7545Z" stroke="#C6C2C2" stroke-miterlimit="10"/>
<path d="M998.867 19.7139C998.892 20.475 998.229 21.0753 997.504 21.0077L995.48 20.9705C994.682 21.0892 994.082 20.4261 994.113 19.7945C994.088 19.0333 994.751 18.433 995.476 18.5007L997.5 18.5379C998.298 18.4192 998.805 19.0459 998.867 19.7139Z" stroke="#C6C2C2" stroke-miterlimit="10"/>
<path d="M1188.83 54.2829L1139.49 54.4925L1144.93 40.5151L1143.43 38.8574L1144.84 35.2233L1146.38 36.7877L1151.53 23.5557L1150 21.9913L1152.03 16.773L1201.43 16.6928L1199.36 22.0043L1200.84 23.4392L1195.54 37.044L1193.48 37.0999L1192.54 39.5227L1193.85 41.1077L1188.83 54.2829Z" stroke="#C6C2C2" stroke-miterlimit="10"/>
<path d="M1144.93 40.5151L1193.85 41.1078" stroke="#C6C2C2" stroke-miterlimit="10"/>
<path d="M1143.43 38.8575L1192.61 39.3364" stroke="#C6C2C2" stroke-miterlimit="10"/>
<path d="M1146.29 36.7515L1195.63 37.0803" stroke="#C6C2C2" stroke-miterlimit="10"/>
<path d="M1151.53 23.5557L1200.89 23.5687" stroke="#C6C2C2" stroke-miterlimit="10"/>
<path d="M1150 21.9913L1199.49 21.9474" stroke="#C6C2C2" stroke-miterlimit="10"/>
<path d="M1159.18 19.3445C1159.21 20.1056 1158.55 20.7059 1157.82 20.6383L1155.76 20.6943C1155 20.7198 1154.4 20.0568 1154.47 19.3319C1154.44 18.5708 1155.1 17.9704 1155.83 18.0381L1157.85 18.0753C1158.61 18.0498 1159.22 18.7128 1159.18 19.3445Z" stroke="#C6C2C2" stroke-miterlimit="10"/>
<path d="M1171.5 19.4177C1171.52 20.1789 1170.86 20.7792 1170.13 20.7115L1168.11 20.6743C1167.35 20.6999 1166.75 20.0368 1166.82 19.3119C1166.79 18.5508 1167.45 17.9505 1168.18 18.0181L1170.2 18.0553C1170.83 18.0867 1171.47 18.6566 1171.5 19.4177Z" stroke="#C6C2C2" stroke-miterlimit="10"/>
<path d="M1183.66 19.3251C1183.68 20.0862 1183.02 20.6865 1182.3 20.6189L1180.27 20.5817C1179.51 20.6072 1178.91 19.9442 1178.98 19.2193C1178.95 18.4581 1179.62 17.8578 1180.34 17.9255L1182.37 17.9627C1183.09 18.0303 1183.63 18.5639 1183.66 19.3251Z" stroke="#C6C2C2" stroke-miterlimit="10"/>
<path d="M1196.23 19.2844C1196.26 20.0456 1195.59 20.6459 1194.87 20.5782L1192.84 20.541C1192.05 20.6597 1191.45 19.9967 1191.48 19.365C1191.45 18.6039 1192.12 18.0036 1192.84 18.0712L1194.86 18.1084C1195.66 17.9897 1196.17 18.6165 1196.23 19.2844Z" stroke="#C6C2C2" stroke-miterlimit="10"/>
<path d="M1089.64 54.4683L1040.31 54.678L1045.75 40.7005L1044.25 39.0429L1045.66 35.4087L1047.2 36.9731L1052.35 23.7411L1050.82 22.1767L1052.85 16.9584L1102.24 16.8782L1100.18 22.1897L1101.66 23.6246L1096.36 37.2294L1094.3 37.2854L1093.35 39.7081L1094.67 41.2932L1089.64 54.4683Z" stroke="#C6C2C2" stroke-miterlimit="10"/>
<path d="M1045.75 40.7005L1094.67 41.2932" stroke="#C6C2C2" stroke-miterlimit="10"/>
<path d="M1044.25 39.0429L1093.43 39.5218" stroke="#C6C2C2" stroke-miterlimit="10"/>
<path d="M1047.11 36.9369L1096.45 37.2657" stroke="#C6C2C2" stroke-miterlimit="10"/>
<path d="M1052.35 23.7411L1101.71 23.7541" stroke="#C6C2C2" stroke-miterlimit="10"/>
<path d="M1050.82 22.1767L1100.31 22.1328" stroke="#C6C2C2" stroke-miterlimit="10"/>
<path d="M1060 19.5299C1060.03 20.2911 1059.37 20.8914 1058.64 20.8237L1056.58 20.8797C1055.82 20.9052 1055.22 20.2422 1055.29 19.5173C1055.26 18.7562 1055.92 18.1559 1056.65 18.2235L1058.67 18.2607C1059.43 18.2352 1060.03 18.8982 1060 19.5299Z" stroke="#C6C2C2" stroke-miterlimit="10"/>
<path d="M1072.32 19.6031C1072.34 20.3643 1071.68 20.9646 1070.95 20.897L1068.93 20.8597C1068.17 20.8853 1067.57 20.2222 1067.63 19.4974C1067.61 18.7362 1068.27 18.1359 1069 18.2036L1071.02 18.2408C1071.65 18.2721 1072.29 18.842 1072.32 19.6031Z" stroke="#C6C2C2" stroke-miterlimit="10"/>
<path d="M1084.48 19.5105C1084.5 20.2716 1083.84 20.872 1083.12 20.8043L1081.09 20.7671C1080.33 20.7926 1079.73 20.1296 1079.8 19.4047C1079.77 18.6436 1080.44 18.0433 1081.16 18.1109L1083.18 18.1481C1083.91 18.2158 1084.45 18.7493 1084.48 19.5105Z" stroke="#C6C2C2" stroke-miterlimit="10"/>
<path d="M1097.05 19.4699C1097.08 20.231 1096.41 20.8313 1095.69 20.7637L1093.66 20.7265C1092.87 20.8452 1092.27 20.1821 1092.3 19.5504C1092.27 18.7893 1092.93 18.189 1093.66 18.2566L1095.68 18.2938C1096.48 18.1751 1096.99 18.8019 1097.05 19.4699Z" stroke="#C6C2C2" stroke-miterlimit="10"/>
<path d="M1139.73 54.4048L1090.4 54.6145L1095.84 40.637L1094.34 38.9794L1095.75 35.3452L1097.29 36.9097L1102.44 23.6776L1100.91 22.1132L1102.94 16.8949L1152.33 16.8148L1150.27 22.1262L1151.75 23.5612L1146.45 37.1659L1144.39 37.2219L1143.44 39.6447L1144.76 41.2297L1139.73 54.4048Z" stroke="#C6C2C2" stroke-miterlimit="10"/>
<path d="M1095.84 40.637L1144.76 41.2297" stroke="#C6C2C2" stroke-miterlimit="10"/>
<path d="M1094.34 38.9794L1143.52 39.4583" stroke="#C6C2C2" stroke-miterlimit="10"/>
<path d="M1097.2 36.8734L1146.54 37.2022" stroke="#C6C2C2" stroke-miterlimit="10"/>
<path d="M1102.44 23.6776L1151.8 23.6906" stroke="#C6C2C2" stroke-miterlimit="10"/>
<path d="M1100.91 22.1132L1150.4 22.0693" stroke="#C6C2C2" stroke-miterlimit="10"/>
<path d="M1110.09 19.4664C1110.12 20.2276 1109.46 20.8279 1108.73 20.7602L1106.67 20.8162C1105.91 20.8418 1105.31 20.1787 1105.38 19.4539C1105.35 18.6927 1106.01 18.0924 1106.74 18.16L1108.76 18.1972C1109.52 18.1717 1110.12 18.8348 1110.09 19.4664Z" stroke="#C6C2C2" stroke-miterlimit="10"/>
<path d="M1122.41 19.5397C1122.43 20.3008 1121.77 20.9011 1121.04 20.8335L1119.02 20.7963C1118.26 20.8218 1117.66 20.1588 1117.72 19.4339C1117.7 18.6727 1118.36 18.0724 1119.09 18.1401L1121.11 18.1773C1121.74 18.2087 1122.38 18.7785 1122.41 19.5397Z" stroke="#C6C2C2" stroke-miterlimit="10"/>
<path d="M1134.57 19.447C1134.59 20.2082 1133.93 20.8085 1133.21 20.7408L1131.18 20.7036C1130.42 20.7291 1129.82 20.0661 1129.89 19.3412C1129.86 18.5801 1130.52 17.9798 1131.25 18.0474L1133.27 18.0846C1134 18.1523 1134.54 18.6859 1134.57 19.447Z" stroke="#C6C2C2" stroke-miterlimit="10"/>
<path d="M1147.14 19.4064C1147.17 20.1675 1146.5 20.7678 1145.78 20.7002L1143.75 20.663C1142.96 20.7817 1142.36 20.1186 1142.39 19.487C1142.36 18.7258 1143.02 18.1255 1143.75 18.1932L1145.77 18.2304C1146.57 18.1117 1147.08 18.7384 1147.14 19.4064Z" stroke="#C6C2C2" stroke-miterlimit="10"/>
</svg>
