<svg width="18" height="18" viewBox="0 0 18 18" fill="none" xmlns="http://www.w3.org/2000/svg">
<path d="M17.6909 6.41017L9.441 0.149342C9.31283 0.0521217 9.15845 -0.000244141 9 -0.000244141C8.84155 -0.000244141 8.68717 0.0521217 8.559 0.149342L0.309081 6.41017C0.148163 6.53222 0.040297 6.71597 0.00921317 6.921C-0.006178 7.02252 -0.00225544 7.12622 0.0207569 7.22616C0.0437692 7.3261 0.0854206 7.42033 0.143333 7.50347C0.201245 7.58662 0.274285 7.65704 0.358281 7.71073C0.442276 7.76442 0.535584 7.80032 0.632875 7.81638C0.829365 7.84881 1.03015 7.79847 1.19107 7.67643L2.25006 6.87269V16.4345C2.25125 16.8493 2.40967 17.2467 2.69071 17.5399C2.97176 17.8332 3.35259 17.9985 3.75005 17.9998H6.75002V10.9563C6.75002 10.7488 6.82904 10.5497 6.96969 10.4029C7.11034 10.2562 7.3011 10.1737 7.50001 10.1737H10.5C10.6989 10.1737 10.8897 10.2562 11.0303 10.4029C11.171 10.5497 11.25 10.7488 11.25 10.9563V17.9998H14.25C14.6474 17.9985 15.0282 17.8332 15.3093 17.5399C15.5903 17.2467 15.7487 16.8493 15.7499 16.4345V6.87269L16.8089 7.67643C16.8886 7.73686 16.9789 7.78032 17.0747 7.80433C17.1705 7.82835 17.2698 7.83244 17.3671 7.81638C17.4644 7.80032 17.5577 7.76442 17.6417 7.71073C17.7257 7.65704 17.7988 7.58662 17.8567 7.50347C17.9146 7.42033 17.9562 7.3261 17.9792 7.22616C18.0023 7.12622 18.0062 7.02252 17.9908 6.921C17.9754 6.81948 17.941 6.72212 17.8895 6.63447C17.8381 6.54682 17.7706 6.4706 17.6909 6.41017V6.41017Z" fill="#3B404D"/>
</svg>
