<?xml version="1.0" standalone="no"?>
<!DOCTYPE svg PUBLIC "-//W3C//DTD SVG 20010904//EN"
 "http://www.w3.org/TR/2001/REC-SVG-20010904/DTD/svg10.dtd">
<svg version="1.0" xmlns="http://www.w3.org/2000/svg"
 width="988.000000pt" height="462.000000pt" viewBox="0 0 988.000000 462.000000"
 preserveAspectRatio="xMidYMid meet">

<g transform="translate(0.000000,462.000000) scale(0.100000,-0.100000)"
fill="#000000" stroke="none">
<path d="M886 4589 l-26 -31 0 -503 0 -503 -343 -303 c-438 -388 -417 -367
-417 -416 0 -42 17 -69 100 -159 92 -100 118 -94 312 80 l98 87 0 -987 c0
-902 1 -988 17 -1014 9 -16 27 -33 40 -39 17 -8 267 -11 813 -11 l790 0 32 29
c33 29 33 29 36 139 3 87 0 116 -13 142 -31 61 -21 60 -710 60 l-625 0 0 775
0 775 1364 2 1365 3 30 29 c24 23 31 38 31 69 0 33 -8 47 -57 100 -123 130
-1487 1554 -1528 1594 -45 44 -80 59 -117 49 -13 -3 -104 -73 -203 -155 -99
-83 -183 -151 -187 -151 -5 0 -8 69 -8 154 0 152 0 155 -26 185 l-26 31 -358
0 -358 0 -26 -31z m424 -634 c0 -253 3 -311 15 -335 30 -58 98 -67 161 -21 21
15 163 132 314 260 151 127 278 230 282 228 4 -1 225 -227 490 -502 l482 -500
-542 -3 c-298 -1 -786 -1 -1084 0 l-542 3 161 142 c88 79 164 150 167 159 3 9
6 206 6 438 0 233 3 426 7 429 3 4 24 7 45 7 l38 0 0 -305z"/>
<path d="M253 4582 c-104 -37 -199 -137 -229 -240 -11 -38 -15 -80 -12 -136 3
-68 10 -91 37 -144 41 -75 103 -135 179 -170 49 -23 70 -27 152 -27 82 0 103
4 152 27 79 37 142 98 181 177 30 61 32 73 32 166 0 92 -3 105 -32 160 -37 72
-114 147 -180 177 -68 30 -209 35 -280 10z m274 -62 c113 -56 177 -160 177
-290 0 -59 -6 -87 -26 -130 -63 -136 -207 -213 -354 -190 -185 30 -307 217
-260 400 53 205 271 304 463 210z"/>
<path d="M250 4231 l0 -191 25 0 c24 0 25 2 25 75 l0 75 38 -1 c34 0 42 -7 97
-74 52 -65 64 -74 93 -74 l34 -1 -44 51 c-23 29 -55 66 -69 83 l-27 31 35 30
c26 22 36 41 40 71 5 36 1 46 -25 75 -30 34 -32 34 -126 37 l-96 4 0 -191z
m170 131 c28 -23 30 -77 3 -103 -10 -10 -41 -21 -70 -25 l-53 -7 0 77 0 76 49
0 c32 0 56 -6 71 -18z"/>
<path d="M1123 2605 c-17 -7 -36 -22 -42 -34 -6 -11 -11 -76 -11 -151 l0 -132
29 -29 29 -29 566 0 c401 0 572 3 590 11 42 20 56 65 56 184 0 123 -13 159
-65 181 -50 20 -1104 20 -1152 -1z"/>
<path d="M2503 2609 c-18 -19 -19 -1789 -1 -1807 15 -15 566 -17 759 -1 284
22 453 91 609 249 193 195 283 474 251 774 -35 325 -203 569 -484 701 -152 72
-254 85 -737 92 -308 4 -388 2 -397 -8z m748 -389 c175 -33 297 -154 345 -342
20 -76 22 -248 5 -333 -20 -97 -73 -196 -134 -251 -99 -90 -174 -114 -363
-114 l-114 0 0 525 0 525 104 0 c57 0 128 -5 157 -10z"/>
<path d="M4547 2614 c-4 -4 -7 -81 -7 -171 l0 -163 168 2 167 3 0 165 0 165
-161 3 c-88 1 -163 -1 -167 -4z"/>
<path d="M5027 2614 c-4 -4 -7 -81 -7 -171 l0 -163 168 2 167 3 0 165 0 165
-161 3 c-88 1 -163 -1 -167 -4z"/>
<path d="M7125 2608 c-3 -7 -4 -418 -3 -913 l3 -900 219 -3 c153 -2 223 1 232
9 11 9 14 61 14 259 0 221 2 250 18 269 17 21 19 17 167 -221 83 -133 162
-259 178 -280 l27 -38 263 2 c231 3 262 5 265 19 2 9 -108 184 -243 389 -136
205 -244 377 -241 384 2 6 106 135 230 286 125 151 225 282 224 290 -3 13 -42
15 -268 18 l-265 2 -175 -231 -175 -232 -3 438 c-1 303 -6 442 -13 452 -16 18
-447 19 -454 1z"/>
<path d="M4805 2214 c-11 -2 -45 -9 -75 -15 -119 -24 -251 -99 -331 -187 -63
-71 -132 -211 -155 -317 -26 -117 -24 -323 5 -434 64 -254 227 -422 471 -488
94 -26 348 -25 445 1 242 64 404 234 471 491 27 105 25 352 -4 458 -66 244
-226 408 -457 472 -58 16 -324 30 -370 19z m228 -358 c86 -36 135 -146 144
-320 9 -173 -20 -310 -80 -375 -51 -56 -175 -79 -250 -47 -83 36 -135 147
-144 313 -12 217 39 375 142 431 28 16 150 15 188 -2z"/>
<path d="M6310 2205 c-286 -54 -481 -229 -551 -492 -26 -96 -32 -326 -11 -413
37 -153 113 -287 209 -369 63 -54 188 -116 288 -143 66 -17 110 -21 255 -22
192 -1 246 9 395 73 l70 29 0 199 0 198 -38 3 c-32 3 -45 -2 -77 -32 -97 -88
-191 -126 -310 -126 -101 0 -166 21 -222 70 -76 67 -116 201 -105 349 12 149
62 251 151 306 47 29 54 30 161 30 108 0 113 -1 186 -37 42 -21 96 -56 122
-78 41 -37 51 -41 89 -38 l43 3 0 195 0 195 -69 33 c-113 55 -202 73 -366 78
-99 2 -169 -1 -220 -11z"/>
<path d="M9050 2205 c-147 -29 -257 -85 -350 -178 -134 -133 -200 -315 -200
-548 0 -140 21 -243 71 -348 75 -160 238 -288 424 -335 182 -46 442 -47 621
-2 138 34 233 74 240 100 2 12 3 98 2 191 l-3 170 -38 3 c-29 2 -50 -4 -85
-26 -135 -85 -216 -112 -346 -119 -223 -13 -360 53 -402 193 -8 26 -14 53 -14
60 0 11 84 14 453 16 l452 3 3 137 c5 242 -43 399 -160 524 -74 79 -184 137
-301 159 -95 18 -278 18 -367 0z m225 -306 c55 -15 100 -64 119 -129 29 -98
46 -90 -204 -90 -248 0 -235 -5 -205 79 42 120 159 176 290 140z"/>
<path d="M1117 2114 c-40 -21 -47 -50 -47 -180 0 -138 11 -168 68 -183 51 -15
1073 -15 1125 0 60 16 68 39 68 184 1 138 -8 167 -57 185 -15 6 -250 10 -577
10 -474 -1 -556 -3 -580 -16z"/>
<path d="M1760 459 c-80 -32 -125 -126 -118 -244 9 -133 78 -205 196 -205 87
0 135 29 175 105 17 32 21 58 21 125 0 67 -4 93 -21 125 -25 48 -58 80 -96 94
-35 13 -123 13 -157 0z m165 -72 c78 -78 70 -245 -16 -309 -33 -25 -110 -26
-145 -3 -44 28 -67 97 -62 179 8 119 47 165 142 166 41 0 53 -5 81 -33z"/>
<path d="M3435 454 c-78 -40 -111 -107 -109 -224 2 -155 81 -231 225 -218 72
7 121 50 144 126 6 19 3 22 -22 22 -24 0 -31 -6 -42 -35 -22 -63 -124 -89
-180 -47 -48 36 -66 80 -65 162 0 118 46 180 130 180 60 0 91 -17 110 -60 12
-27 22 -37 38 -36 51 2 12 95 -54 128 -44 22 -135 23 -175 2z"/>
<path d="M4895 456 c-94 -42 -139 -181 -100 -312 16 -54 62 -106 108 -123 36
-14 118 -14 154 0 46 17 92 69 108 123 41 136 -8 278 -108 315 -39 15 -126 13
-162 -3z m168 -66 c83 -73 71 -277 -18 -318 -14 -7 -48 -12 -75 -12 -41 0 -53
5 -79 30 -72 72 -68 235 6 300 28 25 43 30 83 30 40 0 55 -5 83 -30z"/>
<path d="M6375 456 c-155 -67 -149 -376 8 -435 35 -14 108 -14 142 -1 14 5 37
22 50 36 l25 27 0 -32 c0 -24 4 -31 20 -31 19 0 20 7 20 115 l0 115 -85 0
c-84 0 -85 0 -85 -25 0 -24 3 -25 60 -25 54 0 60 -2 60 -20 0 -35 -26 -85 -53
-103 -41 -27 -119 -23 -155 8 -78 65 -81 228 -7 302 30 30 39 33 90 33 49 0
60 -4 86 -29 16 -16 29 -37 29 -45 0 -11 9 -16 29 -16 29 0 30 1 19 33 -13 38
-43 74 -80 93 -34 17 -133 18 -173 0z"/>
<path d="M620 240 l0 -220 25 0 c24 0 24 2 27 88 l3 87 90 5 c103 6 126 16
149 64 20 42 20 86 1 132 -21 50 -61 64 -190 64 l-105 0 0 -220z m213 159 c31
-16 37 -28 37 -71 0 -24 -7 -45 -19 -57 -21 -21 -86 -35 -141 -29 l-35 3 -3
83 -3 82 71 0 c39 0 81 -5 93 -11z"/>
<path d="M1130 240 l0 -220 25 0 c24 0 24 2 27 93 l3 92 76 0 c99 0 119 -15
119 -89 0 -78 8 -96 40 -96 l29 0 -5 57 c-9 101 -14 122 -37 138 -20 15 -21
17 -4 26 40 23 58 98 37 153 -19 51 -62 66 -192 66 l-118 0 0 -220z m246 146
c21 -29 18 -82 -6 -106 -17 -17 -33 -20 -105 -20 l-85 0 0 76 0 76 91 -4 c76
-2 93 -6 105 -22z"/>
<path d="M2240 240 l0 -222 113 4 c140 4 179 21 217 93 34 67 35 178 2 247
-37 76 -74 92 -214 97 l-118 3 0 -222z m250 133 c36 -40 54 -104 46 -161 -14
-102 -62 -142 -167 -142 l-69 0 0 171 0 171 81 -4 c76 -3 82 -5 109 -35z"/>
<path d="M2792 288 c5 -193 13 -223 71 -258 42 -26 146 -27 189 -2 58 34 68
71 68 262 l0 170 -25 0 -25 0 0 -155 c0 -211 -15 -245 -110 -245 -95 0 -110
34 -110 245 l0 155 -31 0 -32 0 5 -172z"/>
<path d="M3860 435 c0 -24 2 -25 65 -25 l65 0 0 -195 0 -195 30 0 30 0 0 195
0 194 68 3 c61 3 67 5 70 26 l3 22 -165 0 -166 0 0 -25z"/>
<path d="M5390 240 l0 -220 25 0 25 0 0 100 0 100 100 0 100 0 0 25 0 25 -100
0 -100 0 0 70 0 70 115 0 115 0 0 25 0 25 -140 0 -140 0 0 -220z"/>
<path d="M6860 240 l0 -220 150 0 150 0 0 25 0 25 -125 0 -125 0 0 75 0 75
110 0 110 0 0 25 0 25 -110 0 -110 0 0 70 0 70 120 0 120 0 0 25 0 25 -145 0
-145 0 0 -220z"/>
<path d="M7350 240 l0 -220 30 0 30 0 0 95 0 95 65 0 c71 0 112 -14 120 -41 4
-10 9 -47 13 -81 7 -62 7 -63 39 -66 32 -3 33 -2 23 23 -6 14 -10 51 -10 81 0
45 -4 59 -24 79 l-25 25 30 29 c23 24 29 38 29 75 0 103 -36 126 -204 126
l-116 0 0 -220z m238 154 c17 -12 22 -25 22 -59 0 -61 -22 -75 -122 -75 l-78
0 0 75 0 75 78 0 c54 0 84 -5 100 -16z"/>
<path d="M7890 240 l0 -220 25 0 25 0 2 181 3 180 65 -178 c59 -162 68 -178
90 -181 24 -2 28 7 90 178 l65 181 3 -181 2 -180 30 0 30 0 0 220 0 220 -44 0
-43 0 -64 -175 c-35 -96 -66 -175 -69 -175 -3 0 -25 55 -49 123 -88 247 -77
227 -122 227 l-39 0 0 -220z"/>
<path d="M8642 433 c-88 -242 -142 -397 -142 -405 0 -5 12 -8 26 -6 22 2 30
12 47 56 l20 53 90 -3 90 -3 17 -50 c15 -44 20 -50 48 -53 l31 -3 -40 113
c-23 62 -58 160 -78 218 -36 100 -39 105 -68 108 -26 3 -32 -1 -41 -25z m108
-245 c0 -4 -31 -8 -70 -8 -38 0 -70 3 -70 6 0 5 52 158 66 194 5 13 74 -167
74 -192z"/>
<path d="M9050 240 l0 -220 25 0 25 0 2 172 3 172 110 -172 c105 -165 111
-172 143 -172 l32 0 0 220 0 220 -30 0 -30 0 -2 -171 -3 -171 -108 171 c-100
157 -111 171 -138 171 l-29 0 0 -220z"/>
<path d="M9523 453 c3 -5 37 -61 76 -126 l71 -118 0 -94 0 -95 30 0 30 0 0 93
0 92 75 124 c41 68 75 125 75 127 0 2 -15 4 -32 4 -31 0 -36 -5 -87 -99 -30
-55 -58 -98 -62 -95 -4 2 -31 47 -61 99 -50 90 -55 95 -86 95 -18 0 -31 -3
-29 -7z"/>
</g>
</svg>
