<svg width="17" height="21" viewBox="0 0 17 21" fill="none" xmlns="http://www.w3.org/2000/svg">
<path d="M8.49952 5.08447C6.58309 5.08447 5.02393 6.66685 5.02393 8.61182C5.02393 10.5568 6.58309 12.1392 8.49952 12.1392C10.4159 12.1392 11.9751 10.5568 11.9751 8.61182C11.9751 6.66685 10.416 5.08447 8.49952 5.08447ZM8.49952 10.654C7.39 10.654 6.48732 9.73787 6.48732 8.61182C6.48732 7.48578 7.39 6.56966 8.49952 6.56966C9.60904 6.56966 10.5117 7.48578 10.5117 8.61182C10.5117 9.73787 9.60904 10.654 8.49952 10.654Z" fill="#1D2027"/>
<path d="M8.5 1C4.36448 1 1 4.41462 1 8.61169V8.8221C1 10.9448 2.19911 13.4183 4.56412 16.174C6.27858 18.1716 7.96908 19.5646 8.04016 19.6229L8.5 20L8.95984 19.6229C9.03096 19.5646 10.7215 18.1717 12.4359 16.174C14.8009 13.4183 16 10.9448 16 8.82214V8.61173C16 4.41462 12.6355 1 8.5 1ZM14.5366 8.82214C14.5366 12.4093 9.98241 16.7517 8.5 18.0699C7.01719 16.7513 2.4634 12.4091 2.4634 8.82214V8.61173C2.4634 5.23359 5.17143 2.48523 8.5 2.48523C11.8286 2.48523 14.5366 5.23359 14.5366 8.61173V8.82214Z" fill="#1D2027"/>
<path d="M8.49952 5.08447C6.58309 5.08447 5.02393 6.66685 5.02393 8.61182C5.02393 10.5568 6.58309 12.1392 8.49952 12.1392C10.4159 12.1392 11.9751 10.5568 11.9751 8.61182C11.9751 6.66685 10.416 5.08447 8.49952 5.08447ZM8.49952 10.654C7.39 10.654 6.48732 9.73787 6.48732 8.61182C6.48732 7.48578 7.39 6.56966 8.49952 6.56966C9.60904 6.56966 10.5117 7.48578 10.5117 8.61182C10.5117 9.73787 9.60904 10.654 8.49952 10.654Z" stroke="#1D2027" stroke-width="0.5"/>
<path d="M8.5 1C4.36448 1 1 4.41462 1 8.61169V8.8221C1 10.9448 2.19911 13.4183 4.56412 16.174C6.27858 18.1716 7.96908 19.5646 8.04016 19.6229L8.5 20L8.95984 19.6229C9.03096 19.5646 10.7215 18.1717 12.4359 16.174C14.8009 13.4183 16 10.9448 16 8.82214V8.61173C16 4.41462 12.6355 1 8.5 1ZM14.5366 8.82214C14.5366 12.4093 9.98241 16.7517 8.5 18.0699C7.01719 16.7513 2.4634 12.4091 2.4634 8.82214V8.61173C2.4634 5.23359 5.17143 2.48523 8.5 2.48523C11.8286 2.48523 14.5366 5.23359 14.5366 8.61173V8.82214Z" stroke="#1D2027" stroke-width="0.5"/>
</svg>
