<svg width="17" height="17" viewBox="0 0 17 17" fill="none" xmlns="http://www.w3.org/2000/svg">
<path d="M9.06667 4.5332C8.75387 4.5332 8.5 4.78707 8.5 5.09987C8.5 5.41267 8.75387 5.66654 9.06667 5.66654C10.3167 5.66654 11.3333 6.68314 11.3333 7.9332C11.3333 8.246 11.5872 8.49987 11.9 8.49987C12.2128 8.49987 12.4667 8.246 12.4667 7.9332C12.4667 6.05867 10.9412 4.5332 9.06667 4.5332Z" fill="#1D2027"/>
<path d="M9.06667 2.2666C8.75387 2.2666 8.5 2.52047 8.5 2.83327C8.5 3.14607 8.75387 3.39993 9.06667 3.39993C11.5668 3.39993 13.6 5.43313 13.6 7.93327C13.6 8.24607 13.8539 8.49993 14.1667 8.49993C14.4795 8.49993 14.7333 8.24607 14.7333 7.93327C14.7333 4.80867 12.1913 2.2666 9.06667 2.2666Z" fill="#1D2027"/>
<path d="M9.06667 0C8.75387 0 8.5 0.253867 8.5 0.566667C8.5 0.879467 8.75387 1.13333 9.06667 1.13333C12.8169 1.13333 15.8667 4.18313 15.8667 7.93333C15.8667 8.24613 16.1205 8.5 16.4333 8.5C16.7461 8.5 17 8.24613 17 7.93333C17 3.55867 13.4402 0 9.06667 0Z" fill="#1D2027"/>
<path d="M15.3 12.4671C13.6544 12.4671 12.087 12.109 10.642 11.4029C10.506 11.3349 10.3496 11.327 10.2079 11.3769C10.0651 11.4267 9.9484 11.531 9.88267 11.6659L8.99187 13.5098C6.68667 12.2235 4.77813 10.3161 3.49293 8.01086L5.33573 7.11779C5.47173 7.05206 5.57487 6.93532 5.62473 6.79252C5.67347 6.65086 5.6644 6.49446 5.59753 6.35846C4.89147 4.91346 4.53333 3.34606 4.53333 1.70046C4.53333 1.38766 4.27947 1.13379 3.96667 1.13379H0.566667C0.253867 1.13379 0 1.38766 0 1.70046C0 10.137 6.86347 17.0005 15.3 17.0005C15.6128 17.0005 15.8667 16.7466 15.8667 16.4338V13.0338C15.8667 12.721 15.6128 12.4671 15.3 12.4671Z" fill="#1D2027"/>
</svg>
