<svg width="30" height="30" viewBox="0 0 26 26" fill="none" xmlns="http://www.w3.org/2000/svg">
<path d="M21.4286 17.8292C21.4286 17.7065 21.4174 17.6172 21.3951 17.5614C21.3616 17.4721 21.1468 17.3075 20.7506 17.0675C20.3544 16.8276 19.8605 16.5513 19.269 16.2388L18.3817 15.7533C18.3259 15.7199 18.2199 15.6473 18.0636 15.5357C17.9074 15.4241 17.7679 15.3404 17.6451 15.2846C17.5223 15.2288 17.4051 15.2009 17.2935 15.2009C17.0926 15.2009 16.8304 15.3823 16.5067 15.745C16.183 16.1077 15.865 16.4732 15.5525 16.8415C15.24 17.2098 14.9944 17.394 14.8158 17.394C14.7377 17.394 14.6456 17.3744 14.5396 17.3354C14.4336 17.2963 14.3471 17.26 14.2801 17.2266C14.2132 17.1931 14.1183 17.1401 13.9955 17.0675C13.8728 16.995 13.7946 16.9475 13.7612 16.9252C12.6562 16.3114 11.7048 15.6055 10.9068 14.8075C10.1088 14.0095 9.4029 13.058 8.78906 11.9531C8.76674 11.9196 8.71931 11.8415 8.64676 11.7188C8.57422 11.596 8.52121 11.5011 8.48772 11.4342C8.45424 11.3672 8.41797 11.2807 8.37891 11.1747C8.33984 11.0686 8.32031 10.9766 8.32031 10.8984C8.32031 10.7533 8.43471 10.5664 8.6635 10.3376C8.8923 10.1088 9.14341 9.89397 9.41685 9.69308C9.69029 9.49219 9.94141 9.27176 10.1702 9.03181C10.399 8.79185 10.5134 8.58817 10.5134 8.42076C10.5134 8.30915 10.4855 8.19196 10.4297 8.0692C10.3739 7.94643 10.2902 7.80692 10.1786 7.65067C10.067 7.49442 9.99442 7.38839 9.96094 7.33259C9.92746 7.26562 9.84375 7.10658 9.70982 6.85547C9.57589 6.60435 9.43638 6.35045 9.29129 6.09375C9.1462 5.83705 8.99833 5.57199 8.84766 5.29855C8.69699 5.02511 8.55748 4.79911 8.42913 4.62054C8.30078 4.44196 8.20871 4.34152 8.1529 4.3192C8.0971 4.29687 8.00781 4.28571 7.88504 4.28571C7.34933 4.28571 6.78571 4.40848 6.1942 4.65402C5.6808 4.88839 5.23437 5.41574 4.85491 6.23605C4.47545 7.05636 4.28571 7.7846 4.28571 8.42076C4.28571 8.59933 4.29966 8.78906 4.32757 8.98995C4.35547 9.19085 4.38337 9.36105 4.41127 9.50056C4.43917 9.64007 4.4894 9.82422 4.56194 10.053C4.63449 10.2818 4.69029 10.4464 4.72935 10.5469C4.76841 10.6473 4.83817 10.8315 4.93862 11.0993C5.03906 11.3672 5.10045 11.5346 5.12277 11.6016C5.79241 13.4319 7.00056 15.2204 8.74721 16.9671C10.4939 18.7137 12.2824 19.9219 14.1127 20.5915C14.1797 20.6138 14.3471 20.6752 14.615 20.7757C14.8828 20.8761 15.067 20.9459 15.1674 20.9849C15.2679 21.024 15.4325 21.0798 15.6613 21.1523C15.8901 21.2249 16.0742 21.2751 16.2137 21.303C16.3532 21.3309 16.5234 21.3588 16.7243 21.3867C16.9252 21.4146 17.115 21.4286 17.2935 21.4286C17.9297 21.4286 18.6579 21.2388 19.4782 20.8594C20.2985 20.4799 20.8259 20.0335 21.0603 19.5201C21.3058 18.9286 21.4286 18.365 21.4286 17.8292ZM25.7143 4.82143V20.8929C25.7143 22.221 25.2427 23.3566 24.2997 24.2997C23.3566 25.2427 22.221 25.7143 20.8929 25.7143H4.82143C3.4933 25.7143 2.3577 25.2427 1.41462 24.2997C0.47154 23.3566 0 22.221 0 20.8929V4.82143C0 3.4933 0.47154 2.3577 1.41462 1.41462C2.3577 0.47154 3.4933 0 4.82143 0H20.8929C22.221 0 23.3566 0.47154 24.2997 1.41462C25.2427 2.3577 25.7143 3.4933 25.7143 4.82143Z" fill="#3B404D"/>
</svg>
