<svg width="30" height="30" viewBox="0 0 30 30" fill="none" xmlns="http://www.w3.org/2000/svg">
<path d="M15 30C23.2843 30 30 23.2843 30 15C30 6.71573 23.2843 0 15 0C6.71573 0 0 6.71573 0 15C0 23.2843 6.71573 30 15 30Z" fill="#FF1414" fill-opacity="0.36"/>
<g opacity="0.2">
<path d="M13.5758 11.8797C13.3804 9.63248 11.0361 8.52998 10.9368 8.48498C10.8435 8.44092 10.7394 8.42779 10.6391 8.44514C7.93254 8.8942 7.52567 10.4692 7.50926 10.5348C7.48676 10.6267 7.49098 10.7219 7.51958 10.8109C10.7474 20.8262 17.4561 22.683 19.6616 23.2937C19.8313 23.3406 19.9715 23.3786 20.0779 23.4133C20.1294 23.4306 20.1824 23.4376 20.2354 23.4376C20.308 23.4376 20.3807 23.4222 20.4472 23.3917C20.5147 23.3612 22.1085 22.6103 22.498 20.1615C22.5154 20.0551 22.498 19.9445 22.4488 19.8484C22.4141 19.7809 21.5802 18.1947 19.2688 17.634C19.1071 17.5923 18.9416 17.635 18.8169 17.7414C18.0875 18.3644 17.0802 19.0281 16.6457 19.0965C13.7315 17.6715 12.1044 14.9378 12.043 14.4194C12.0074 14.1278 12.6749 13.104 13.4432 12.2715C13.5402 12.1661 13.5894 12.0231 13.5758 11.8797Z" fill="#FF001F" fill-opacity="0.66"/>
</g>
<path d="M13.5758 10.9422C13.3804 8.69498 11.0361 7.59248 10.9368 7.54748C10.8435 7.50342 10.7394 7.49029 10.6391 7.50764C7.93254 7.9567 7.52567 9.5317 7.50926 9.59733C7.48676 9.6892 7.49098 9.78436 7.51958 9.87342C10.7474 19.8887 17.4561 21.7455 19.6616 22.3562C19.8313 22.4031 19.9715 22.4411 20.0779 22.4758C20.1294 22.4931 20.1824 22.5001 20.2354 22.5001C20.308 22.5001 20.3807 22.4847 20.4472 22.4542C20.5147 22.4237 22.1085 21.6728 22.498 19.224C22.5154 19.1176 22.498 19.007 22.4488 18.9109C22.4141 18.8434 21.5802 17.2572 19.2688 16.6965C19.1071 16.6548 18.9416 16.6975 18.8169 16.8039C18.0875 17.4269 17.0802 18.0906 16.6457 18.159C13.7315 16.734 12.1044 14.0003 12.043 13.4819C12.0074 13.1903 12.6749 12.1665 13.4432 11.334C13.5402 11.2286 13.5894 11.0856 13.5758 10.9422Z" fill="white"/>
</svg>
