<svg width="30" height="30" viewBox="0 0 30 30" fill="none" xmlns="http://www.w3.org/2000/svg">
<path fill-rule="evenodd" clip-rule="evenodd" d="M13.7959 15.7834C13.0308 15.1197 12.1812 14.1892 11.8129 13.3657C11.7562 13.2595 11.6431 12.9936 11.8129 12.7812C12.1529 12.356 12.2096 12.3295 12.5775 11.9308C12.8327 11.6383 13.0308 11.3729 12.9459 11.1335L11.6713 8.02464C11.5576 7.81183 11.218 7.7853 10.8213 7.75876C10.4811 7.75876 10.1133 7.75876 9.858 7.81184C9.2915 7.9981 8.13012 9.43307 7.98856 10.4693C7.67674 12.7276 9.858 15.7303 12.0393 17.5904C14.2209 19.4771 17.592 21.2576 19.9713 20.7523C21.0761 20.5134 22.4931 19.3179 22.6062 18.7594C22.6629 18.5204 22.6346 18.1753 22.578 17.8559C22.5497 17.4841 22.4647 17.2187 22.2373 17.1124L19.3485 15.863C19.0929 15.7301 18.8382 15.8364 18.5835 16.1293C18.2722 16.5276 18.1296 16.6869 17.7616 17.1124C17.5636 17.3514 17.4221 17.5107 17.1957 17.5373C16.94 17.5903 16.6003 17.4577 16.5438 17.4577C15.637 17.1657 14.5889 16.448 13.7959 15.7834ZM4.27757 25.3231L5.92056 21.417C4.10726 19.4506 3.0025 16.8727 3.0025 14.0564C3.0025 7.83879 8.38482 2.81631 15.0144 2.81631C21.643 2.81631 26.997 7.83879 26.997 14.0564C26.997 20.2744 21.643 25.323 15.0144 25.323C12.3511 25.323 9.91457 24.5257 7.932 23.1443L4.27757 25.3231ZM2.26613 21.4966L0 30L8.10175 26.5451C10.1698 27.5549 12.5209 28.1399 15.0144 28.1399C23.2855 28.1399 30 21.8417 30 14.0565C30 6.29771 23.2855 0 15.0144 0C6.71356 0 0 6.29772 0 14.0564C0 16.7931 0.849563 19.3444 2.26613 21.4966Z" fill="#2A9A84" fill-opacity="0.61"/>
</svg>
